# Created by Kenney (www.kenney.nl)

mtllib template-detail.mtl

g template-detail

v 0.8956631 0.2 -1.443823E-15 1 1 1
v 0.7677112 0.2 0.7677112 1 1 1
v 0.7677112 0.2 -0.7677112 1 1 1
v 0 0.2 -0.8956631 1 1 1
v 0 0.2 0.8956631 1 1 1
v -0.7677112 0.2 -0.7677112 1 1 1
v -0.7677112 0.2 0.7677112 1 1 1
v -0.8956631 0.2 0 1 1 1
v 0.7677112 1.025898E-29 -0.7677112 1 1 1
v 0.8956631 1.025898E-29 -1.443823E-15 1 1 1
v 0 1.025898E-29 -0.8956631 1 1 1
v -0.7677112 1.025898E-29 -0.7677112 1 1 1
v -0.8956631 1.025898E-29 0 1 1 1
v -0.7677112 1.025898E-29 0.7677112 1 1 1
v 0 1.025898E-29 0.8956631 1 1 1
v 0.7677112 1.025898E-29 0.7677112 1 1 1
v 0.564375 3.833286 7.731671E-15 1 1 1
v 0.48375 3.833286 -0.48375 1 1 1
v 0.48375 3.833286 0.48375 1 1 1
v 2.761013E-30 3.833286 0.564375 1 1 1
v -2.761013E-30 3.833286 -0.564375 1 1 1
v -0.48375 3.833286 0.48375 1 1 1
v -0.48375 3.833286 -0.48375 1 1 1
v -0.564375 3.833286 8.662937E-15 1 1 1
v 0.564375 4.233286 7.731671E-15 1 1 1
v 0.48375 4.233286 0.48375 1 1 1
v 0.48375 4.233286 -0.48375 1 1 1
v -2.761013E-30 4.233286 -0.564375 1 1 1
v 2.761013E-30 4.233286 0.564375 1 1 1
v -0.48375 4.233286 -0.48375 1 1 1
v -0.48375 4.233286 0.48375 1 1 1
v -0.564375 4.233286 8.662937E-15 1 1 1
v 0.519225 0.6 -1.862531E-15 1 1 1
v 0.44505 0.6 0.44505 1 1 1
v 0.44505 0.6 -0.44505 1 1 1
v -1.322542E-14 0.6 -0.519225 1 1 1
v -1.322542E-14 0.6 0.519225 1 1 1
v -0.44505 0.6 -0.44505 1 1 1
v -0.44505 0.6 0.44505 1 1 1
v -0.519225 0.6 2.540132E-30 1 1 1
v 0.44505 0.2 -0.44505 1 1 1
v 0.519225 0.2 -1.862531E-15 1 1 1
v -1.322542E-14 0.2 -0.519225 1 1 1
v -0.44505 0.2 -0.44505 1 1 1
v -0.519225 0.2 2.540132E-30 1 1 1
v -0.44505 0.2 0.44505 1 1 1
v -1.322542E-14 0.2 0.519225 1 1 1
v 0.44505 0.2 0.44505 1 1 1
v -5.775291E-15 0.6 -0.35 1 1 1
v 0.3 0.6 -0.3 1 1 1
v -1.155058E-14 3.833286 -0.4375 1 1 1
v 0.375 3.833286 -0.375 1 1 1
v -0.35 0.6 0 1 1 1
v -0.4375 3.833286 0 1 1 1
v -0.3 0.6 0.3 1 1 1
v -0.375 3.833286 0.375 1 1 1
v -0.3 0.6 -0.3 1 1 1
v -0.375 3.833286 -0.375 1 1 1
v 0.4375 3.833286 -2.887646E-15 1 1 1
v 0.35 0.6 0 1 1 1
v 0.375 3.833286 0.375 1 1 1
v 0.3 0.6 0.3 1 1 1
v -5.775291E-15 0.6 0.35 1 1 1
v -1.155058E-14 3.833286 0.4375 1 1 1

vn 0 1 0
vn 0.986394 0 -0.164399
vn 1 0 0
vn 0 0 -1
vn 0.164399 0 -0.986394
vn -0.164399 0 -0.986394
vn -0.986394 0 -0.164399
vn -1 0 0
vn -0.986394 0 0.164399
vn 0 0 1
vn -0.164399 0 0.986394
vn 0.164399 0 0.986394
vn 0.986394 0 0.164399
vn 0 -1 0
vn 1 0 -4.892161E-30
vn -1 0 4.892161E-30
vn -4.892161E-30 0 -1
vn 4.892161E-30 0 1
vn 0 -0.02705235 -0.999634
vn 0.1643405 -0.02668453 -0.9860427
vn 0 0.02705235 0.999634
vn -0.1643405 0.02668453 0.9860427
vn -0.999634 -0.02705235 0
vn -0.9860427 -0.02668454 0.1643405
vn 0.9860427 0.02668454 -0.1643405
vn 0.999634 0.02705235 0
vn -0.1643405 -0.02668453 -0.9860427
vn 0.1643405 0.02668453 0.9860427
vn 0.999634 -0.02705235 0
vn 0.9860427 -0.02668454 0.1643405
vn -0.9860427 0.02668454 -0.1643405
vn -0.999634 0.02705235 0
vn 0.9860427 -0.02668454 -0.1643405
vn -0.9860427 0.02668454 0.1643405
vn 0 -0.02705235 0.999634
vn -0.1643405 -0.02668453 0.9860427
vn 0 0.02705235 -0.999634
vn 0.1643405 0.02668453 -0.9860427
vn 0.1643405 -0.02668453 0.9860427
vn -0.1643405 0.02668453 -0.9860427
vn -0.9860427 -0.02668454 -0.1643405
vn 0.9860427 0.02668454 0.1643405

vt 0.34375 0.225
vt 0.34375 0.025
vt 0.09375 0.225
vt 0.09375 0.025
vt 0.21875 0.145
vt 0.21875 0.225
vt 0.21875 0.175
vt 0.21875 0.075

usemtl colormap

f 3/1/1 2/1/1 1/1/1
f 2/1/1 3/1/1 4/1/1
f 2/1/1 4/1/1 5/1/1
f 5/1/1 4/1/1 6/1/1
f 5/1/1 6/1/1 7/1/1
f 7/1/1 6/1/1 8/1/1
f 1/1/3 9/2/2 3/1/2
f 9/2/2 1/1/3 10/2/3
f 4/1/4 9/2/5 11/2/4
f 9/2/5 4/1/4 3/1/5
f 6/1/6 11/2/4 12/2/6
f 11/2/4 6/1/6 4/1/4
f 13/2/8 6/1/7 12/2/7
f 6/1/7 13/2/8 8/1/8
f 14/2/9 8/1/8 13/2/8
f 8/1/8 14/2/9 7/1/9
f 5/1/10 14/2/11 15/2/10
f 14/2/11 5/1/10 7/1/11
f 2/1/12 15/2/10 16/2/12
f 15/2/10 2/1/12 5/1/10
f 2/1/13 10/2/3 1/1/3
f 10/2/3 2/1/13 16/2/13
f 1/3/14 2/3/14 3/3/14
f 4/3/14 3/3/14 2/3/14
f 5/3/14 4/3/14 2/3/14
f 6/3/14 4/3/14 5/3/14
f 7/3/14 6/3/14 5/3/14
f 8/3/14 6/3/14 7/3/14
f 3/3/9 9/4/9 1/3/8
f 10/4/8 1/3/8 9/4/9
f 11/4/10 9/4/11 4/3/10
f 3/3/11 4/3/10 9/4/11
f 12/4/12 11/4/10 6/3/12
f 4/3/10 6/3/12 11/4/10
f 12/4/13 6/3/13 13/4/3
f 8/3/3 13/4/3 6/3/13
f 13/4/3 8/3/3 14/4/2
f 7/3/2 14/4/2 8/3/3
f 15/4/4 14/4/5 5/3/4
f 7/3/5 5/3/4 14/4/5
f 16/4/6 15/4/4 2/3/6
f 5/3/4 2/3/6 15/4/4
f 1/3/8 10/4/8 2/3/7
f 16/4/7 2/3/7 10/4/8
f 19/5/14 18/5/14 17/5/14
f 18/5/14 19/5/14 20/5/14
f 18/5/14 20/5/14 21/5/14
f 21/5/14 20/5/14 22/5/14
f 21/5/14 22/5/14 23/5/14
f 23/5/14 22/5/14 24/5/14
f 17/5/1 18/5/1 19/5/1
f 20/5/1 19/5/1 18/5/1
f 21/5/1 20/5/1 18/5/1
f 22/5/1 20/5/1 21/5/1
f 23/5/1 22/5/1 21/5/1
f 24/5/1 22/5/1 23/5/1
f 27/6/1 26/6/1 25/6/1
f 26/6/1 27/6/1 28/6/1
f 26/6/1 28/6/1 29/6/1
f 29/6/1 28/6/1 30/6/1
f 29/6/1 30/6/1 31/6/1
f 31/6/1 30/6/1 32/6/1
f 25/6/14 26/6/14 27/6/14
f 28/6/14 27/6/14 26/6/14
f 29/6/14 28/6/14 26/6/14
f 30/6/14 28/6/14 29/6/14
f 31/6/14 30/6/14 29/6/14
f 32/6/14 30/6/14 31/6/14
f 25/6/15 18/5/2 27/6/2
f 18/5/2 25/6/15 17/5/15
f 27/6/9 18/5/9 25/6/16
f 17/5/16 25/6/16 18/5/9
f 28/6/17 18/5/5 21/5/17
f 18/5/5 28/6/17 27/6/5
f 21/5/18 18/5/11 28/6/18
f 27/6/11 28/6/18 18/5/11
f 30/6/6 21/5/17 23/5/6
f 21/5/17 30/6/6 28/6/17
f 23/5/12 21/5/18 30/6/12
f 28/6/18 30/6/12 21/5/18
f 24/5/16 30/6/7 23/5/7
f 30/6/7 24/5/16 32/6/16
f 23/5/13 30/6/13 24/5/15
f 32/6/15 24/5/15 30/6/13
f 22/5/9 32/6/16 24/5/16
f 32/6/16 22/5/9 31/6/9
f 24/5/15 32/6/15 22/5/2
f 31/6/2 22/5/2 32/6/15
f 29/6/18 22/5/11 20/5/18
f 22/5/11 29/6/18 31/6/11
f 20/5/17 22/5/5 29/6/17
f 31/6/5 29/6/17 22/5/5
f 26/6/12 20/5/18 19/5/12
f 20/5/18 26/6/12 29/6/18
f 19/5/6 20/5/17 26/6/6
f 29/6/17 26/6/6 20/5/17
f 26/6/13 17/5/15 25/6/15
f 17/5/15 26/6/13 19/5/13
f 25/6/16 17/5/16 26/6/7
f 19/5/7 26/6/7 17/5/16
f 35/6/1 34/6/1 33/6/1
f 34/6/1 35/6/1 36/6/1
f 34/6/1 36/6/1 37/6/1
f 37/6/1 36/6/1 38/6/1
f 37/6/1 38/6/1 39/6/1
f 39/6/1 38/6/1 40/6/1
f 33/6/14 34/6/14 35/6/14
f 36/6/14 35/6/14 34/6/14
f 37/6/14 36/6/14 34/6/14
f 38/6/14 36/6/14 37/6/14
f 39/6/14 38/6/14 37/6/14
f 40/6/14 38/6/14 39/6/14
f 33/6/15 41/5/2 35/6/2
f 41/5/2 33/6/15 42/5/15
f 35/6/9 41/5/9 33/6/16
f 42/5/16 33/6/16 41/5/9
f 36/6/17 41/5/5 43/5/17
f 41/5/5 36/6/17 35/6/5
f 43/5/18 41/5/11 36/6/18
f 35/6/11 36/6/18 41/5/11
f 38/6/6 43/5/17 44/5/6
f 43/5/17 38/6/6 36/6/17
f 44/5/12 43/5/18 38/6/12
f 36/6/18 38/6/12 43/5/18
f 45/5/16 38/6/7 44/5/7
f 38/6/7 45/5/16 40/6/16
f 44/5/13 38/6/13 45/5/15
f 40/6/15 45/5/15 38/6/13
f 46/5/9 40/6/16 45/5/16
f 40/6/16 46/5/9 39/6/9
f 45/5/15 40/6/15 46/5/2
f 39/6/2 46/5/2 40/6/15
f 37/6/18 46/5/11 47/5/18
f 46/5/11 37/6/18 39/6/11
f 47/5/17 46/5/5 37/6/17
f 39/6/5 37/6/17 46/5/5
f 34/6/12 47/5/18 48/5/12
f 47/5/18 34/6/12 37/6/18
f 48/5/6 47/5/17 34/6/6
f 37/6/17 34/6/6 47/5/17
f 34/6/13 42/5/15 33/6/15
f 42/5/15 34/6/13 48/5/13
f 33/6/16 42/5/16 34/6/7
f 48/5/7 34/6/7 42/5/16
f 51/8/19 50/7/20 49/7/19
f 50/7/20 51/8/19 52/8/20
f 49/7/21 50/7/22 51/8/21
f 52/8/22 51/8/21 50/7/22
f 55/7/24 54/8/23 53/7/23
f 54/8/23 55/7/24 56/8/24
f 53/7/26 54/8/26 55/7/25
f 56/8/25 55/7/25 54/8/26
f 58/8/27 49/7/19 57/7/27
f 49/7/19 58/8/27 51/8/19
f 57/7/28 49/7/21 58/8/28
f 51/8/21 58/8/28 49/7/21
f 61/8/30 60/7/29 59/8/29
f 60/7/29 61/8/30 62/7/30
f 59/8/32 60/7/32 61/8/31
f 62/7/31 61/8/31 60/7/32
f 59/8/29 50/7/33 52/8/33
f 50/7/33 59/8/29 60/7/29
f 52/8/34 50/7/34 59/8/32
f 60/7/32 59/8/32 50/7/34
f 64/8/35 55/7/36 63/7/35
f 55/7/36 64/8/35 56/8/36
f 63/7/37 55/7/38 64/8/37
f 56/8/38 64/8/37 55/7/38
f 61/8/39 63/7/35 62/7/39
f 63/7/35 61/8/39 64/8/35
f 62/7/40 63/7/37 61/8/40
f 64/8/37 61/8/40 63/7/37
f 57/7/41 54/8/23 58/8/41
f 54/8/23 57/7/41 53/7/23
f 58/8/42 54/8/26 57/7/42
f 53/7/26 57/7/42 54/8/26

g template-detail




usemtl colormap

f 3/1/1 2/1/1 1/1/1
f 2/1/1 3/1/1 4/1/1
f 2/1/1 4/1/1 5/1/1
f 5/1/1 4/1/1 6/1/1
f 5/1/1 6/1/1 7/1/1
f 7/1/1 6/1/1 8/1/1
f 1/1/3 9/2/2 3/1/2
f 9/2/2 1/1/3 10/2/3
f 4/1/4 9/2/5 11/2/4
f 9/2/5 4/1/4 3/1/5
f 6/1/6 11/2/4 12/2/6
f 11/2/4 6/1/6 4/1/4
f 13/2/8 6/1/7 12/2/7
f 6/1/7 13/2/8 8/1/8
f 14/2/9 8/1/8 13/2/8
f 8/1/8 14/2/9 7/1/9
f 5/1/10 14/2/11 15/2/10
f 14/2/11 5/1/10 7/1/11
f 2/1/12 15/2/10 16/2/12
f 15/2/10 2/1/12 5/1/10
f 2/1/13 10/2/3 1/1/3
f 10/2/3 2/1/13 16/2/13
f 1/3/14 2/3/14 3/3/14
f 4/3/14 3/3/14 2/3/14
f 5/3/14 4/3/14 2/3/14
f 6/3/14 4/3/14 5/3/14
f 7/3/14 6/3/14 5/3/14
f 8/3/14 6/3/14 7/3/14
f 3/3/9 9/4/9 1/3/8
f 10/4/8 1/3/8 9/4/9
f 11/4/10 9/4/11 4/3/10
f 3/3/11 4/3/10 9/4/11
f 12/4/12 11/4/10 6/3/12
f 4/3/10 6/3/12 11/4/10
f 12/4/13 6/3/13 13/4/3
f 8/3/3 13/4/3 6/3/13
f 13/4/3 8/3/3 14/4/2
f 7/3/2 14/4/2 8/3/3
f 15/4/4 14/4/5 5/3/4
f 7/3/5 5/3/4 14/4/5
f 16/4/6 15/4/4 2/3/6
f 5/3/4 2/3/6 15/4/4
f 1/3/8 10/4/8 2/3/7
f 16/4/7 2/3/7 10/4/8
f 19/5/14 18/5/14 17/5/14
f 18/5/14 19/5/14 20/5/14
f 18/5/14 20/5/14 21/5/14
f 21/5/14 20/5/14 22/5/14
f 21/5/14 22/5/14 23/5/14
f 23/5/14 22/5/14 24/5/14
f 17/5/1 18/5/1 19/5/1
f 20/5/1 19/5/1 18/5/1
f 21/5/1 20/5/1 18/5/1
f 22/5/1 20/5/1 21/5/1
f 23/5/1 22/5/1 21/5/1
f 24/5/1 22/5/1 23/5/1
f 27/6/1 26/6/1 25/6/1
f 26/6/1 27/6/1 28/6/1
f 26/6/1 28/6/1 29/6/1
f 29/6/1 28/6/1 30/6/1
f 29/6/1 30/6/1 31/6/1
f 31/6/1 30/6/1 32/6/1
f 25/6/14 26/6/14 27/6/14
f 28/6/14 27/6/14 26/6/14
f 29/6/14 28/6/14 26/6/14
f 30/6/14 28/6/14 29/6/14
f 31/6/14 30/6/14 29/6/14
f 32/6/14 30/6/14 31/6/14
f 25/6/15 18/5/2 27/6/2
f 18/5/2 25/6/15 17/5/15
f 27/6/9 18/5/9 25/6/16
f 17/5/16 25/6/16 18/5/9
f 28/6/17 18/5/5 21/5/17
f 18/5/5 28/6/17 27/6/5
f 21/5/18 18/5/11 28/6/18
f 27/6/11 28/6/18 18/5/11
f 30/6/6 21/5/17 23/5/6
f 21/5/17 30/6/6 28/6/17
f 23/5/12 21/5/18 30/6/12
f 28/6/18 30/6/12 21/5/18
f 24/5/16 30/6/7 23/5/7
f 30/6/7 24/5/16 32/6/16
f 23/5/13 30/6/13 24/5/15
f 32/6/15 24/5/15 30/6/13
f 22/5/9 32/6/16 24/5/16
f 32/6/16 22/5/9 31/6/9
f 24/5/15 32/6/15 22/5/2
f 31/6/2 22/5/2 32/6/15
f 29/6/18 22/5/11 20/5/18
f 22/5/11 29/6/18 31/6/11
f 20/5/17 22/5/5 29/6/17
f 31/6/5 29/6/17 22/5/5
f 26/6/12 20/5/18 19/5/12
f 20/5/18 26/6/12 29/6/18
f 19/5/6 20/5/17 26/6/6
f 29/6/17 26/6/6 20/5/17
f 26/6/13 17/5/15 25/6/15
f 17/5/15 26/6/13 19/5/13
f 25/6/16 17/5/16 26/6/7
f 19/5/7 26/6/7 17/5/16
f 35/6/1 34/6/1 33/6/1
f 34/6/1 35/6/1 36/6/1
f 34/6/1 36/6/1 37/6/1
f 37/6/1 36/6/1 38/6/1
f 37/6/1 38/6/1 39/6/1
f 39/6/1 38/6/1 40/6/1
f 33/6/14 34/6/14 35/6/14
f 36/6/14 35/6/14 34/6/14
f 37/6/14 36/6/14 34/6/14
f 38/6/14 36/6/14 37/6/14
f 39/6/14 38/6/14 37/6/14
f 40/6/14 38/6/14 39/6/14
f 33/6/15 41/5/2 35/6/2
f 41/5/2 33/6/15 42/5/15
f 35/6/9 41/5/9 33/6/16
f 42/5/16 33/6/16 41/5/9
f 36/6/17 41/5/5 43/5/17
f 41/5/5 36/6/17 35/6/5
f 43/5/18 41/5/11 36/6/18
f 35/6/11 36/6/18 41/5/11
f 38/6/6 43/5/17 44/5/6
f 43/5/17 38/6/6 36/6/17
f 44/5/12 43/5/18 38/6/12
f 36/6/18 38/6/12 43/5/18
f 45/5/16 38/6/7 44/5/7
f 38/6/7 45/5/16 40/6/16
f 44/5/13 38/6/13 45/5/15
f 40/6/15 45/5/15 38/6/13
f 46/5/9 40/6/16 45/5/16
f 40/6/16 46/5/9 39/6/9
f 45/5/15 40/6/15 46/5/2
f 39/6/2 46/5/2 40/6/15
f 37/6/18 46/5/11 47/5/18
f 46/5/11 37/6/18 39/6/11
f 47/5/17 46/5/5 37/6/17
f 39/6/5 37/6/17 46/5/5
f 34/6/12 47/5/18 48/5/12
f 47/5/18 34/6/12 37/6/18
f 48/5/6 47/5/17 34/6/6
f 37/6/17 34/6/6 47/5/17
f 34/6/13 42/5/15 33/6/15
f 42/5/15 34/6/13 48/5/13
f 33/6/16 42/5/16 34/6/7
f 48/5/7 34/6/7 42/5/16
f 51/8/19 50/7/20 49/7/19
f 50/7/20 51/8/19 52/8/20
f 49/7/21 50/7/22 51/8/21
f 52/8/22 51/8/21 50/7/22
f 55/7/24 54/8/23 53/7/23
f 54/8/23 55/7/24 56/8/24
f 53/7/26 54/8/26 55/7/25
f 56/8/25 55/7/25 54/8/26
f 58/8/27 49/7/19 57/7/27
f 49/7/19 58/8/27 51/8/19
f 57/7/28 49/7/21 58/8/28
f 51/8/21 58/8/28 49/7/21
f 61/8/30 60/7/29 59/8/29
f 60/7/29 61/8/30 62/7/30
f 59/8/32 60/7/32 61/8/31
f 62/7/31 61/8/31 60/7/32
f 59/8/29 50/7/33 52/8/33
f 50/7/33 59/8/29 60/7/29
f 52/8/34 50/7/34 59/8/32
f 60/7/32 59/8/32 50/7/34
f 64/8/35 55/7/36 63/7/35
f 55/7/36 64/8/35 56/8/36
f 63/7/37 55/7/38 64/8/37
f 56/8/38 64/8/37 55/7/38
f 61/8/39 63/7/35 62/7/39
f 63/7/35 61/8/39 64/8/35
f 62/7/40 63/7/37 61/8/40
f 64/8/37 61/8/40 63/7/37
f 57/7/41 54/8/23 58/8/41
f 54/8/23 57/7/41 53/7/23
f 58/8/42 54/8/26 57/7/42
f 53/7/26 57/7/42 54/8/26

