# Created by Kenney (www.kenney.nl)

mtllib template-floor-layer-raised.mtl

g template-floor-layer-raised

v -2 2.8 -2 1 1 1
v 2 2.8 -2 1 1 1
v -2 2.9 -2 1 1 1
v 2 3 -2 1 1 1
v 2 2.8 -1.368421 1 1 1
v -2 2.8 -1.368421 1 1 1
v 2 3 -1.368421 1 1 1
v -2 2.9 -1.368421 1 1 1
v 1.984322 3 -1.244833 1 1 1
v 1.984322 2.8 -1.244833 1 1 1
v 2.011871 3 -0.6138552 1 1 1
v 2.011871 2.8 -0.6138552 1 1 1
v -2.011871 2.8 -1.070355 1 1 1
v -2.011871 2.9 -1.070355 1 1 1
v -1.984322 2.8 -0.4393777 1 1 1
v -1.984322 2.9 -0.4393777 1 1 1
v -2 2.8 1.368421 1 1 1
v 2 2.8 1.368421 1 1 1
v -2 2.9 1.368421 1 1 1
v 2 3 1.368421 1 1 1
v 2 2.8 2 1 1 1
v -2 2.8 2 1 1 1
v 2 3 2 1 1 1
v -2 2.9 2 1 1 1
v 2.009371 3 0.5927999 1 1 1
v 2.009371 2.8 0.5927999 1 1 1
v 1.98843 3 1.224031 1 1 1
v 1.98843 2.8 1.224031 1 1 1
v -1.98843 2.8 0.4601792 1 1 1
v -2.009371 2.8 1.091411 1 1 1
v -1.98843 2.9 0.4601792 1 1 1
v -2.009371 2.9 1.091411 1 1 1
v -2 2.8 -0.3157894 1 1 1
v -2 2.9 -0.3157894 1 1 1
v -2 2.8 0.3157894 1 1 1
v -2 2.9 0.3157894 1 1 1
v 2 2.8 0.3157894 1 1 1
v 2 2.8 -0.3157894 1 1 1
v 2 3 -0.3157894 1 1 1
v 2 3 0.3157894 1 1 1
v -1.688129 1.490107E-08 -1.7 1 1 1
v -1.688129 2.5 -1.7 1 1 1
v -1.688129 0 -1.3 1 1 1
v -1.688129 2.5 -1.3 1 1 1
v -1.288129 1.490107E-08 -1.7 1 1 1
v -1.4 2.5 -1.7 1 1 1
v -1.288129 0 -1.3 1 1 1
v -1.4 2.5 -1.3 1 1 1
v -1.688129 5.543197E-08 1.3 1 1 1
v -1.288129 5.543197E-08 1.3 1 1 1
v -1.688129 2.5 1.300001 1 1 1
v -1.4 2.5 1.300001 1 1 1
v -1.288129 4.05309E-08 1.7 1 1 1
v -1.688129 4.05309E-08 1.7 1 1 1
v -1.688129 2.5 1.700001 1 1 1
v -1.4 2.5 1.700001 1 1 1
v 1.311871 9.596287E-08 1.3 1 1 1
v 1.711871 9.596287E-08 1.3 1 1 1
v 1.423742 2.5 1.300001 1 1 1
v 1.711871 2.5 1.300001 1 1 1
v 1.311871 8.106181E-08 1.7 1 1 1
v 1.423742 2.5 1.700001 1 1 1
v 1.711871 8.106181E-08 1.7 1 1 1
v 1.711871 2.5 1.700001 1 1 1
v 1.711871 5.543197E-08 -1.7 1 1 1
v 1.311871 5.543197E-08 -1.7 1 1 1
v 1.711871 4.05309E-08 -1.3 1 1 1
v 1.311871 4.05309E-08 -1.3 1 1 1
v 1.711871 2.5 -1.299999 1 1 1
v 1.423742 2.5 -1.299999 1 1 1
v 1.423742 2.5 -1.699999 1 1 1
v 1.711871 2.5 -1.699999 1 1 1
v -0.2866477 2.8 -1.3725 1 1 1
v -0.2866477 2.8 -1.6275 1 1 1
v -1.370369 1.837827 -1.3725 1 1 1
v -1.370369 1.837827 -1.6275 1 1 1
v -1.387635 2.223675 -1.3725 1 1 1
v -0.7385052 2.8 -1.3725 1 1 1
v -1.387635 2.223675 -1.6275 1 1 1
v -0.7385052 2.8 -1.6275 1 1 1
v 1.394111 1.837827 1.6275 1 1 1
v 1.394111 1.837827 1.372501 1 1 1
v 0.3103897 2.8 1.6275 1 1 1
v 0.3103897 2.8 1.372501 1 1 1
v 1.411377 2.223675 1.372501 1 1 1
v 1.411377 2.223675 1.6275 1 1 1
v 0.7622471 2.8 1.372501 1 1 1
v 0.7622471 2.8 1.6275 1 1 1
v 1.394111 1.837827 -1.3725 1 1 1
v 0.3103897 2.8 -1.3725 1 1 1
v 1.411377 2.223675 -1.3725 1 1 1
v 0.7622471 2.8 -1.3725 1 1 1
v 1.411377 2.223675 -1.6275 1 1 1
v 0.7622471 2.8 -1.6275 1 1 1
v 1.394111 1.837827 -1.6275 1 1 1
v 0.3103897 2.8 -1.6275 1 1 1
v -0.7385052 2.8 1.3725 1 1 1
v -0.7385052 2.8 1.6275 1 1 1
v -1.387635 2.223675 1.3725 1 1 1
v -1.387635 2.223675 1.6275 1 1 1
v -1.370369 1.837827 1.3725 1 1 1
v -0.2866477 2.8 1.3725 1 1 1
v -1.370369 1.837827 1.6275 1 1 1
v -0.2866477 2.8 1.6275 1 1 1
v 1.4 2.5 2 1 1 1
v 1.7 2.5 2 1 1 1
v 1.4 2.5 -2 1 1 1
v 1.7 2.5 -2 1 1 1
v 1.7 2.8 2 1 1 1
v 1.4 2.8 2 1 1 1
v 1.7 2.8 -2 1 1 1
v 1.4 2.8 -2 1 1 1
v -1.7 2.5 2 1 1 1
v -1.4 2.5 2 1 1 1
v -1.7 2.5 -2 1 1 1
v -1.4 2.5 -2 1 1 1
v -1.4 2.8 2 1 1 1
v -1.7 2.8 2 1 1 1
v -1.4 2.8 -2 1 1 1
v -1.7 2.8 -2 1 1 1

vn 0 0 -1
vn 0 0 1
vn -1 0 0
vn -0.7158884 0.6982149 0
vn 1 0 0
vn 0.7158884 -0.6982149 0
vn -0.02499219 0.9996877 0
vn 0.02499219 -0.9996877 0
vn 0 -1 0
vn 0 1 0
vn 0.9990482 0 -0.04361938
vn -0.9990482 0 0.04361938
vn -0.715207 0.6982148 0.03122661
vn 0.715207 -0.6982148 -0.03122661
vn -0.04361938 0 -0.9990482
vn 0.04361938 0 0.9990482
vn -0.0249684 0.9996877 0.001090144
vn 0.0249684 -0.9996877 -0.001090144
vn 0.9994503 0 0.03315518
vn -0.9994503 0 -0.03315518
vn -0.02497845 0.9996877 -0.0008286206
vn -0.7154947 0.6982148 -0.02373541
vn 0.7154947 -0.6982148 0.02373541
vn 0.02497845 -0.9996877 0.0008286206
vn -0.03315518 0 0.9994503
vn 0.03315518 0 -0.9994503
vn 0.9990003 0.0447037 0
vn -0.9990003 -0.0447037 0
vn -0.9990003 0.0447037 0
vn 0.9990003 -0.0447037 0
vn 0.6639262 -0.7477981 0
vn -0.6639262 0.7477981 0
vn -0.6639262 -0.7477981 0
vn 0.6639262 0.7477981 0
vn -1.192093E-07 0 1
vn 1.192093E-07 0 -1
vn 1 0 1.192093E-07
vn -1 0 -1.192093E-07

vt 0.46875 0.06218992
vt 0.46875 0.1356875
vt 0.46875 0.209185
vt 0.46875 0.1485048
vt 0.46875 0.1736481
vt 0.46875 0.1610765
vt 0.46875 0.04889195
vt 0.46875 0.09230611
vt 0.46875 0.1357203
vt 0.46875 0.109781
vt 0.46875 0.1046558
vt 0.46875 0.1072184
vt 0.46875 0.09284829
vt 0.46875 0.1245034
vt 0.46875 0.1561586
vt 0.46875 0.225
vt 0.46875 0.025
vt 0.46875 0.1447965
vt 0.46875 0.075
vt 0.46875 0.175

usemtl colormap

f 3/2/1 2/1/1 1/1/1
f 2/1/1 3/2/1 4/3/1
f 1/1/2 2/1/2 3/2/2
f 4/3/2 3/2/2 2/1/2
f 7/3/2 6/1/2 5/1/2
f 6/1/2 7/3/2 8/2/2
f 5/1/1 6/1/1 7/3/1
f 8/2/1 7/3/1 6/1/1
f 6/1/3 3/2/4 1/1/3
f 3/2/4 6/1/3 8/2/4
f 1/1/5 3/2/6 6/1/5
f 8/2/6 6/1/5 3/2/6
f 7/3/5 2/1/5 4/3/5
f 2/1/5 7/3/5 5/1/5
f 4/3/3 2/1/3 7/3/3
f 5/1/3 7/3/3 2/1/3
f 3/2/4 7/3/7 4/3/7
f 7/3/7 3/2/4 8/2/4
f 4/3/8 7/3/8 3/2/6
f 8/2/6 3/2/6 7/3/8
f 6/1/9 2/1/9 5/1/9
f 2/1/9 6/1/9 1/1/9
f 5/1/10 2/1/10 6/1/10
f 1/1/10 6/1/10 2/1/10
f 11/4/11 10/5/11 9/4/11
f 10/5/11 11/4/11 12/5/11
f 9/4/12 10/5/12 11/4/12
f 12/5/12 11/4/12 10/5/12
f 15/5/12 14/6/13 13/5/12
f 14/6/13 15/5/12 16/6/13
f 13/5/11 14/6/14 15/5/11
f 16/6/14 15/5/11 14/6/14
f 14/6/15 10/5/15 13/5/15
f 10/5/15 14/6/15 9/4/15
f 13/5/16 10/5/16 14/6/16
f 9/4/16 14/6/16 10/5/16
f 9/4/17 16/6/13 11/4/17
f 16/6/13 9/4/17 14/6/13
f 11/4/18 16/6/14 9/4/18
f 14/6/14 9/4/18 16/6/14
f 15/5/9 10/5/9 12/5/9
f 10/5/9 15/5/9 13/5/9
f 12/5/10 10/5/10 15/5/10
f 13/5/10 15/5/10 10/5/10
f 11/4/16 15/5/16 12/5/16
f 15/5/16 11/4/16 16/6/16
f 12/5/15 15/5/15 11/4/15
f 16/6/15 11/4/15 15/5/15
f 19/8/1 18/7/1 17/7/1
f 18/7/1 19/8/1 20/9/1
f 17/7/2 18/7/2 19/8/2
f 20/9/2 19/8/2 18/7/2
f 22/7/9 18/7/9 21/7/9
f 18/7/9 22/7/9 17/7/9
f 21/7/10 18/7/10 22/7/10
f 17/7/10 22/7/10 18/7/10
f 23/9/5 18/7/5 20/9/5
f 18/7/5 23/9/5 21/7/5
f 20/9/3 18/7/3 23/9/3
f 21/7/3 23/9/3 18/7/3
f 19/8/4 23/9/7 20/9/7
f 23/9/7 19/8/4 24/8/4
f 20/9/8 23/9/8 19/8/6
f 24/8/6 19/8/6 23/9/8
f 22/7/3 19/8/4 17/7/3
f 19/8/4 22/7/3 24/8/4
f 17/7/5 19/8/6 22/7/5
f 24/8/6 22/7/5 19/8/6
f 23/9/2 22/7/2 21/7/2
f 22/7/2 23/9/2 24/8/2
f 21/7/1 22/7/1 23/9/1
f 24/8/1 23/9/1 22/7/1
f 27/10/19 26/11/19 25/10/19
f 26/11/19 27/10/19 28/11/19
f 25/10/20 26/11/20 27/10/20
f 28/11/20 27/10/20 26/11/20
f 28/11/9 29/11/9 26/11/9
f 29/11/9 28/11/9 30/11/9
f 26/11/10 29/11/10 28/11/10
f 30/11/10 28/11/10 29/11/10
f 31/12/22 27/10/21 25/10/21
f 27/10/21 31/12/22 32/12/22
f 25/10/24 27/10/24 31/12/23
f 32/12/23 31/12/23 27/10/24
f 30/11/20 31/12/22 29/11/20
f 31/12/22 30/11/20 32/12/22
f 29/11/19 31/12/23 30/11/19
f 32/12/23 30/11/19 31/12/23
f 27/10/25 30/11/25 28/11/25
f 30/11/25 27/10/25 32/12/25
f 28/11/26 30/11/26 27/10/26
f 32/12/26 27/10/26 30/11/26
f 31/12/26 26/11/26 29/11/26
f 26/11/26 31/12/26 25/10/26
f 29/11/25 26/11/25 31/12/25
f 25/10/25 31/12/25 26/11/25
f 35/13/3 34/14/4 33/13/3
f 34/14/4 35/13/3 36/14/4
f 33/13/5 34/14/6 35/13/5
f 36/14/6 35/13/5 34/14/6
f 35/13/9 38/13/9 37/13/9
f 38/13/9 35/13/9 33/13/9
f 37/13/10 38/13/10 35/13/10
f 33/13/10 35/13/10 38/13/10
f 40/15/5 38/13/5 39/15/5
f 38/13/5 40/15/5 37/13/5
f 39/15/3 38/13/3 40/15/3
f 37/13/3 40/15/3 38/13/3
f 40/15/2 35/13/2 37/13/2
f 35/13/2 40/15/2 36/14/2
f 37/13/1 35/13/1 40/15/1
f 36/14/1 40/15/1 35/13/1
f 34/14/4 40/15/7 39/15/7
f 40/15/7 34/14/4 36/14/4
f 39/15/8 40/15/8 34/14/6
f 36/14/6 34/14/6 40/15/8
f 34/14/1 38/13/1 33/13/1
f 38/13/1 34/14/1 39/15/1
f 33/13/2 38/13/2 34/14/2
f 39/15/2 34/14/2 38/13/2
f 43/16/3 42/17/3 41/16/3
f 42/17/3 43/16/3 44/17/3
f 41/16/5 42/17/5 43/16/5
f 44/17/5 43/16/5 42/17/5
f 42/17/1 45/16/1 41/16/1
f 45/16/1 42/17/1 46/17/1
f 41/16/2 45/16/2 42/17/2
f 46/17/2 42/17/2 45/16/2
f 46/17/27 47/16/27 45/16/27
f 47/16/27 46/17/27 48/17/27
f 45/16/28 47/16/28 46/17/28
f 48/17/28 46/17/28 47/16/28
f 48/17/2 43/16/2 47/16/2
f 43/16/2 48/17/2 44/17/2
f 47/16/1 43/16/1 48/17/1
f 44/17/1 48/17/1 43/16/1
f 43/16/9 45/16/9 47/16/9
f 45/16/9 43/16/9 41/16/9
f 47/16/10 45/16/10 43/16/10
f 41/16/10 43/16/10 45/16/10
f 51/17/1 50/16/1 49/16/1
f 50/16/1 51/17/1 52/17/1
f 49/16/2 50/16/2 51/17/2
f 52/17/2 51/17/2 50/16/2
f 54/16/9 50/16/9 53/16/9
f 50/16/9 54/16/9 49/16/9
f 53/16/10 50/16/10 54/16/10
f 49/16/10 54/16/10 50/16/10
f 54/16/3 51/17/3 49/16/3
f 51/17/3 54/16/3 55/17/3
f 49/16/5 51/17/5 54/16/5
f 55/17/5 54/16/5 51/17/5
f 56/17/2 54/16/2 53/16/2
f 54/16/2 56/17/2 55/17/2
f 53/16/1 54/16/1 56/17/1
f 55/17/1 56/17/1 54/16/1
f 52/17/27 53/16/27 50/16/27
f 53/16/27 52/17/27 56/17/27
f 50/16/28 53/16/28 52/17/28
f 56/17/28 52/17/28 53/16/28
f 59/17/1 58/16/1 57/16/1
f 58/16/1 59/17/1 60/17/1
f 57/16/2 58/16/2 59/17/2
f 60/17/2 59/17/2 58/16/2
f 61/16/29 59/17/29 57/16/29
f 59/17/29 61/16/29 62/17/29
f 57/16/30 59/17/30 61/16/30
f 62/17/30 61/16/30 59/17/30
f 60/17/5 63/16/5 58/16/5
f 63/16/5 60/17/5 64/17/5
f 58/16/3 63/16/3 60/17/3
f 64/17/3 60/17/3 63/16/3
f 64/17/2 61/16/2 63/16/2
f 61/16/2 64/17/2 62/17/2
f 63/16/1 61/16/1 64/17/1
f 62/17/1 64/17/1 61/16/1
f 63/16/9 57/16/9 58/16/9
f 57/16/9 63/16/9 61/16/9
f 58/16/10 57/16/10 63/16/10
f 61/16/10 63/16/10 57/16/10
f 67/16/9 66/16/9 65/16/9
f 66/16/9 67/16/9 68/16/9
f 65/16/10 66/16/10 67/16/10
f 68/16/10 67/16/10 66/16/10
f 69/17/2 68/16/2 67/16/2
f 68/16/2 69/17/2 70/17/2
f 67/16/1 68/16/1 69/17/1
f 70/17/1 69/17/1 68/16/1
f 71/17/1 65/16/1 66/16/1
f 65/16/1 71/17/1 72/17/1
f 66/16/2 65/16/2 71/17/2
f 72/17/2 71/17/2 65/16/2
f 68/16/29 71/17/29 66/16/29
f 71/17/29 68/16/29 70/17/29
f 66/16/30 71/17/30 68/16/30
f 70/17/30 68/16/30 71/17/30
f 72/17/5 67/16/5 65/16/5
f 67/16/5 72/17/5 69/17/5
f 65/16/3 67/16/3 72/17/3
f 69/17/3 72/17/3 67/16/3
f 75/16/31 74/17/31 73/17/31
f 74/17/31 75/16/31 76/16/31
f 73/17/32 74/17/32 75/16/32
f 76/16/32 75/16/32 74/17/32
f 73/17/2 77/18/2 75/16/2
f 77/18/2 73/17/2 78/17/2
f 75/16/1 77/18/1 73/17/1
f 78/17/1 73/17/1 77/18/1
f 79/18/1 74/17/1 76/16/1
f 74/17/1 79/18/1 80/17/1
f 76/16/2 74/17/2 79/18/2
f 80/17/2 79/18/2 74/17/2
f 79/18/32 78/17/32 80/17/32
f 78/17/32 79/18/32 77/18/32
f 80/17/31 78/17/31 79/18/31
f 77/18/31 79/18/31 78/17/31
f 83/17/33 82/16/33 81/16/33
f 82/16/33 83/17/33 84/17/33
f 81/16/34 82/16/34 83/17/34
f 84/17/34 83/17/34 82/16/34
f 87/17/34 86/18/34 85/18/34
f 86/18/34 87/17/34 88/17/34
f 85/18/33 86/18/33 87/17/33
f 88/17/33 87/17/33 86/18/33
f 86/18/2 83/17/2 81/16/2
f 83/17/2 86/18/2 88/17/2
f 81/16/1 83/17/1 86/18/1
f 88/17/1 86/18/1 83/17/1
f 84/17/1 85/18/1 82/16/1
f 85/18/1 84/17/1 87/17/1
f 82/16/2 85/18/2 84/17/2
f 87/17/2 84/17/2 85/18/2
f 91/18/2 90/17/2 89/16/2
f 90/17/2 91/18/2 92/17/2
f 89/16/1 90/17/1 91/18/1
f 92/17/1 91/18/1 90/17/1
f 94/17/34 91/18/34 93/18/34
f 91/18/34 94/17/34 92/17/34
f 93/18/33 91/18/33 94/17/33
f 92/17/33 94/17/33 91/18/33
f 96/17/1 93/18/1 95/16/1
f 93/18/1 96/17/1 94/17/1
f 95/16/2 93/18/2 96/17/2
f 94/17/2 96/17/2 93/18/2
f 90/17/33 95/16/33 89/16/33
f 95/16/33 90/17/33 96/17/33
f 89/16/34 95/16/34 90/17/34
f 96/17/34 90/17/34 95/16/34
f 99/18/32 98/17/32 97/17/32
f 98/17/32 99/18/32 100/18/32
f 97/17/31 98/17/31 99/18/31
f 100/18/31 99/18/31 98/17/31
f 99/18/1 102/17/1 101/16/1
f 102/17/1 99/18/1 97/17/1
f 101/16/2 102/17/2 99/18/2
f 97/17/2 99/18/2 102/17/2
f 104/17/2 100/18/2 103/16/2
f 100/18/2 104/17/2 98/17/2
f 103/16/1 100/18/1 104/17/1
f 98/17/1 104/17/1 100/18/1
f 103/16/31 102/17/31 104/17/31
f 102/17/31 103/16/31 101/16/31
f 104/17/32 102/17/32 103/16/32
f 101/16/32 103/16/32 102/17/32
f 107/19/9 106/19/9 105/19/9
f 106/19/9 107/19/9 108/19/9
f 105/19/10 106/19/10 107/19/10
f 108/19/10 107/19/10 106/19/10
f 111/20/10 110/20/10 109/20/10
f 110/20/10 111/20/10 112/20/10
f 109/20/9 110/20/9 111/20/9
f 112/20/9 111/20/9 110/20/9
f 110/20/35 106/19/35 109/20/35
f 106/19/35 110/20/35 105/19/35
f 109/20/36 106/19/36 110/20/36
f 105/19/36 110/20/36 106/19/36
f 111/20/37 106/19/37 108/19/37
f 106/19/37 111/20/37 109/20/37
f 108/19/38 106/19/38 111/20/38
f 109/20/38 111/20/38 106/19/38
f 107/19/36 111/20/36 108/19/36
f 111/20/36 107/19/36 112/20/36
f 108/19/35 111/20/35 107/19/35
f 112/20/35 107/19/35 111/20/35
f 110/20/38 107/19/38 105/19/38
f 107/19/38 110/20/38 112/20/38
f 105/19/37 107/19/37 110/20/37
f 112/20/37 110/20/37 107/19/37
f 115/19/9 114/19/9 113/19/9
f 114/19/9 115/19/9 116/19/9
f 113/19/10 114/19/10 115/19/10
f 116/19/10 115/19/10 114/19/10
f 119/20/10 118/20/10 117/20/10
f 118/20/10 119/20/10 120/20/10
f 117/20/9 118/20/9 119/20/9
f 120/20/9 119/20/9 118/20/9
f 118/20/35 114/19/35 117/20/35
f 114/19/35 118/20/35 113/19/35
f 117/20/36 114/19/36 118/20/36
f 113/19/36 118/20/36 114/19/36
f 119/20/37 114/19/37 116/19/37
f 114/19/37 119/20/37 117/20/37
f 116/19/38 114/19/38 119/20/38
f 117/20/38 119/20/38 114/19/38
f 115/19/36 119/20/36 116/19/36
f 119/20/36 115/19/36 120/20/36
f 116/19/35 119/20/35 115/19/35
f 120/20/35 115/19/35 119/20/35
f 118/20/38 115/19/38 113/19/38
f 115/19/38 118/20/38 120/20/38
f 113/19/37 115/19/37 118/20/37
f 120/20/37 118/20/37 115/19/37

g template-floor-layer-raised




usemtl colormap

f 3/2/1 2/1/1 1/1/1
f 2/1/1 3/2/1 4/3/1
f 1/1/2 2/1/2 3/2/2
f 4/3/2 3/2/2 2/1/2
f 7/3/2 6/1/2 5/1/2
f 6/1/2 7/3/2 8/2/2
f 5/1/1 6/1/1 7/3/1
f 8/2/1 7/3/1 6/1/1
f 6/1/3 3/2/4 1/1/3
f 3/2/4 6/1/3 8/2/4
f 1/1/5 3/2/6 6/1/5
f 8/2/6 6/1/5 3/2/6
f 7/3/5 2/1/5 4/3/5
f 2/1/5 7/3/5 5/1/5
f 4/3/3 2/1/3 7/3/3
f 5/1/3 7/3/3 2/1/3
f 3/2/4 7/3/7 4/3/7
f 7/3/7 3/2/4 8/2/4
f 4/3/8 7/3/8 3/2/6
f 8/2/6 3/2/6 7/3/8
f 6/1/9 2/1/9 5/1/9
f 2/1/9 6/1/9 1/1/9
f 5/1/10 2/1/10 6/1/10
f 1/1/10 6/1/10 2/1/10
f 11/4/11 10/5/11 9/4/11
f 10/5/11 11/4/11 12/5/11
f 9/4/12 10/5/12 11/4/12
f 12/5/12 11/4/12 10/5/12
f 15/5/12 14/6/13 13/5/12
f 14/6/13 15/5/12 16/6/13
f 13/5/11 14/6/14 15/5/11
f 16/6/14 15/5/11 14/6/14
f 14/6/15 10/5/15 13/5/15
f 10/5/15 14/6/15 9/4/15
f 13/5/16 10/5/16 14/6/16
f 9/4/16 14/6/16 10/5/16
f 9/4/17 16/6/13 11/4/17
f 16/6/13 9/4/17 14/6/13
f 11/4/18 16/6/14 9/4/18
f 14/6/14 9/4/18 16/6/14
f 15/5/9 10/5/9 12/5/9
f 10/5/9 15/5/9 13/5/9
f 12/5/10 10/5/10 15/5/10
f 13/5/10 15/5/10 10/5/10
f 11/4/16 15/5/16 12/5/16
f 15/5/16 11/4/16 16/6/16
f 12/5/15 15/5/15 11/4/15
f 16/6/15 11/4/15 15/5/15
f 19/8/1 18/7/1 17/7/1
f 18/7/1 19/8/1 20/9/1
f 17/7/2 18/7/2 19/8/2
f 20/9/2 19/8/2 18/7/2
f 22/7/9 18/7/9 21/7/9
f 18/7/9 22/7/9 17/7/9
f 21/7/10 18/7/10 22/7/10
f 17/7/10 22/7/10 18/7/10
f 23/9/5 18/7/5 20/9/5
f 18/7/5 23/9/5 21/7/5
f 20/9/3 18/7/3 23/9/3
f 21/7/3 23/9/3 18/7/3
f 19/8/4 23/9/7 20/9/7
f 23/9/7 19/8/4 24/8/4
f 20/9/8 23/9/8 19/8/6
f 24/8/6 19/8/6 23/9/8
f 22/7/3 19/8/4 17/7/3
f 19/8/4 22/7/3 24/8/4
f 17/7/5 19/8/6 22/7/5
f 24/8/6 22/7/5 19/8/6
f 23/9/2 22/7/2 21/7/2
f 22/7/2 23/9/2 24/8/2
f 21/7/1 22/7/1 23/9/1
f 24/8/1 23/9/1 22/7/1
f 27/10/19 26/11/19 25/10/19
f 26/11/19 27/10/19 28/11/19
f 25/10/20 26/11/20 27/10/20
f 28/11/20 27/10/20 26/11/20
f 28/11/9 29/11/9 26/11/9
f 29/11/9 28/11/9 30/11/9
f 26/11/10 29/11/10 28/11/10
f 30/11/10 28/11/10 29/11/10
f 31/12/22 27/10/21 25/10/21
f 27/10/21 31/12/22 32/12/22
f 25/10/24 27/10/24 31/12/23
f 32/12/23 31/12/23 27/10/24
f 30/11/20 31/12/22 29/11/20
f 31/12/22 30/11/20 32/12/22
f 29/11/19 31/12/23 30/11/19
f 32/12/23 30/11/19 31/12/23
f 27/10/25 30/11/25 28/11/25
f 30/11/25 27/10/25 32/12/25
f 28/11/26 30/11/26 27/10/26
f 32/12/26 27/10/26 30/11/26
f 31/12/26 26/11/26 29/11/26
f 26/11/26 31/12/26 25/10/26
f 29/11/25 26/11/25 31/12/25
f 25/10/25 31/12/25 26/11/25
f 35/13/3 34/14/4 33/13/3
f 34/14/4 35/13/3 36/14/4
f 33/13/5 34/14/6 35/13/5
f 36/14/6 35/13/5 34/14/6
f 35/13/9 38/13/9 37/13/9
f 38/13/9 35/13/9 33/13/9
f 37/13/10 38/13/10 35/13/10
f 33/13/10 35/13/10 38/13/10
f 40/15/5 38/13/5 39/15/5
f 38/13/5 40/15/5 37/13/5
f 39/15/3 38/13/3 40/15/3
f 37/13/3 40/15/3 38/13/3
f 40/15/2 35/13/2 37/13/2
f 35/13/2 40/15/2 36/14/2
f 37/13/1 35/13/1 40/15/1
f 36/14/1 40/15/1 35/13/1
f 34/14/4 40/15/7 39/15/7
f 40/15/7 34/14/4 36/14/4
f 39/15/8 40/15/8 34/14/6
f 36/14/6 34/14/6 40/15/8
f 34/14/1 38/13/1 33/13/1
f 38/13/1 34/14/1 39/15/1
f 33/13/2 38/13/2 34/14/2
f 39/15/2 34/14/2 38/13/2
f 43/16/3 42/17/3 41/16/3
f 42/17/3 43/16/3 44/17/3
f 41/16/5 42/17/5 43/16/5
f 44/17/5 43/16/5 42/17/5
f 42/17/1 45/16/1 41/16/1
f 45/16/1 42/17/1 46/17/1
f 41/16/2 45/16/2 42/17/2
f 46/17/2 42/17/2 45/16/2
f 46/17/27 47/16/27 45/16/27
f 47/16/27 46/17/27 48/17/27
f 45/16/28 47/16/28 46/17/28
f 48/17/28 46/17/28 47/16/28
f 48/17/2 43/16/2 47/16/2
f 43/16/2 48/17/2 44/17/2
f 47/16/1 43/16/1 48/17/1
f 44/17/1 48/17/1 43/16/1
f 43/16/9 45/16/9 47/16/9
f 45/16/9 43/16/9 41/16/9
f 47/16/10 45/16/10 43/16/10
f 41/16/10 43/16/10 45/16/10
f 51/17/1 50/16/1 49/16/1
f 50/16/1 51/17/1 52/17/1
f 49/16/2 50/16/2 51/17/2
f 52/17/2 51/17/2 50/16/2
f 54/16/9 50/16/9 53/16/9
f 50/16/9 54/16/9 49/16/9
f 53/16/10 50/16/10 54/16/10
f 49/16/10 54/16/10 50/16/10
f 54/16/3 51/17/3 49/16/3
f 51/17/3 54/16/3 55/17/3
f 49/16/5 51/17/5 54/16/5
f 55/17/5 54/16/5 51/17/5
f 56/17/2 54/16/2 53/16/2
f 54/16/2 56/17/2 55/17/2
f 53/16/1 54/16/1 56/17/1
f 55/17/1 56/17/1 54/16/1
f 52/17/27 53/16/27 50/16/27
f 53/16/27 52/17/27 56/17/27
f 50/16/28 53/16/28 52/17/28
f 56/17/28 52/17/28 53/16/28
f 59/17/1 58/16/1 57/16/1
f 58/16/1 59/17/1 60/17/1
f 57/16/2 58/16/2 59/17/2
f 60/17/2 59/17/2 58/16/2
f 61/16/29 59/17/29 57/16/29
f 59/17/29 61/16/29 62/17/29
f 57/16/30 59/17/30 61/16/30
f 62/17/30 61/16/30 59/17/30
f 60/17/5 63/16/5 58/16/5
f 63/16/5 60/17/5 64/17/5
f 58/16/3 63/16/3 60/17/3
f 64/17/3 60/17/3 63/16/3
f 64/17/2 61/16/2 63/16/2
f 61/16/2 64/17/2 62/17/2
f 63/16/1 61/16/1 64/17/1
f 62/17/1 64/17/1 61/16/1
f 63/16/9 57/16/9 58/16/9
f 57/16/9 63/16/9 61/16/9
f 58/16/10 57/16/10 63/16/10
f 61/16/10 63/16/10 57/16/10
f 67/16/9 66/16/9 65/16/9
f 66/16/9 67/16/9 68/16/9
f 65/16/10 66/16/10 67/16/10
f 68/16/10 67/16/10 66/16/10
f 69/17/2 68/16/2 67/16/2
f 68/16/2 69/17/2 70/17/2
f 67/16/1 68/16/1 69/17/1
f 70/17/1 69/17/1 68/16/1
f 71/17/1 65/16/1 66/16/1
f 65/16/1 71/17/1 72/17/1
f 66/16/2 65/16/2 71/17/2
f 72/17/2 71/17/2 65/16/2
f 68/16/29 71/17/29 66/16/29
f 71/17/29 68/16/29 70/17/29
f 66/16/30 71/17/30 68/16/30
f 70/17/30 68/16/30 71/17/30
f 72/17/5 67/16/5 65/16/5
f 67/16/5 72/17/5 69/17/5
f 65/16/3 67/16/3 72/17/3
f 69/17/3 72/17/3 67/16/3
f 75/16/31 74/17/31 73/17/31
f 74/17/31 75/16/31 76/16/31
f 73/17/32 74/17/32 75/16/32
f 76/16/32 75/16/32 74/17/32
f 73/17/2 77/18/2 75/16/2
f 77/18/2 73/17/2 78/17/2
f 75/16/1 77/18/1 73/17/1
f 78/17/1 73/17/1 77/18/1
f 79/18/1 74/17/1 76/16/1
f 74/17/1 79/18/1 80/17/1
f 76/16/2 74/17/2 79/18/2
f 80/17/2 79/18/2 74/17/2
f 79/18/32 78/17/32 80/17/32
f 78/17/32 79/18/32 77/18/32
f 80/17/31 78/17/31 79/18/31
f 77/18/31 79/18/31 78/17/31
f 83/17/33 82/16/33 81/16/33
f 82/16/33 83/17/33 84/17/33
f 81/16/34 82/16/34 83/17/34
f 84/17/34 83/17/34 82/16/34
f 87/17/34 86/18/34 85/18/34
f 86/18/34 87/17/34 88/17/34
f 85/18/33 86/18/33 87/17/33
f 88/17/33 87/17/33 86/18/33
f 86/18/2 83/17/2 81/16/2
f 83/17/2 86/18/2 88/17/2
f 81/16/1 83/17/1 86/18/1
f 88/17/1 86/18/1 83/17/1
f 84/17/1 85/18/1 82/16/1
f 85/18/1 84/17/1 87/17/1
f 82/16/2 85/18/2 84/17/2
f 87/17/2 84/17/2 85/18/2
f 91/18/2 90/17/2 89/16/2
f 90/17/2 91/18/2 92/17/2
f 89/16/1 90/17/1 91/18/1
f 92/17/1 91/18/1 90/17/1
f 94/17/34 91/18/34 93/18/34
f 91/18/34 94/17/34 92/17/34
f 93/18/33 91/18/33 94/17/33
f 92/17/33 94/17/33 91/18/33
f 96/17/1 93/18/1 95/16/1
f 93/18/1 96/17/1 94/17/1
f 95/16/2 93/18/2 96/17/2
f 94/17/2 96/17/2 93/18/2
f 90/17/33 95/16/33 89/16/33
f 95/16/33 90/17/33 96/17/33
f 89/16/34 95/16/34 90/17/34
f 96/17/34 90/17/34 95/16/34
f 99/18/32 98/17/32 97/17/32
f 98/17/32 99/18/32 100/18/32
f 97/17/31 98/17/31 99/18/31
f 100/18/31 99/18/31 98/17/31
f 99/18/1 102/17/1 101/16/1
f 102/17/1 99/18/1 97/17/1
f 101/16/2 102/17/2 99/18/2
f 97/17/2 99/18/2 102/17/2
f 104/17/2 100/18/2 103/16/2
f 100/18/2 104/17/2 98/17/2
f 103/16/1 100/18/1 104/17/1
f 98/17/1 104/17/1 100/18/1
f 103/16/31 102/17/31 104/17/31
f 102/17/31 103/16/31 101/16/31
f 104/17/32 102/17/32 103/16/32
f 101/16/32 103/16/32 102/17/32
f 107/19/9 106/19/9 105/19/9
f 106/19/9 107/19/9 108/19/9
f 105/19/10 106/19/10 107/19/10
f 108/19/10 107/19/10 106/19/10
f 111/20/10 110/20/10 109/20/10
f 110/20/10 111/20/10 112/20/10
f 109/20/9 110/20/9 111/20/9
f 112/20/9 111/20/9 110/20/9
f 110/20/35 106/19/35 109/20/35
f 106/19/35 110/20/35 105/19/35
f 109/20/36 106/19/36 110/20/36
f 105/19/36 110/20/36 106/19/36
f 111/20/37 106/19/37 108/19/37
f 106/19/37 111/20/37 109/20/37
f 108/19/38 106/19/38 111/20/38
f 109/20/38 111/20/38 106/19/38
f 107/19/36 111/20/36 108/19/36
f 111/20/36 107/19/36 112/20/36
f 108/19/35 111/20/35 107/19/35
f 112/20/35 107/19/35 111/20/35
f 110/20/38 107/19/38 105/19/38
f 107/19/38 110/20/38 112/20/38
f 105/19/37 107/19/37 110/20/37
f 112/20/37 110/20/37 107/19/37
f 115/19/9 114/19/9 113/19/9
f 114/19/9 115/19/9 116/19/9
f 113/19/10 114/19/10 115/19/10
f 116/19/10 115/19/10 114/19/10
f 119/20/10 118/20/10 117/20/10
f 118/20/10 119/20/10 120/20/10
f 117/20/9 118/20/9 119/20/9
f 120/20/9 119/20/9 118/20/9
f 118/20/35 114/19/35 117/20/35
f 114/19/35 118/20/35 113/19/35
f 117/20/36 114/19/36 118/20/36
f 113/19/36 118/20/36 114/19/36
f 119/20/37 114/19/37 116/19/37
f 114/19/37 119/20/37 117/20/37
f 116/19/38 114/19/38 119/20/38
f 117/20/38 119/20/38 114/19/38
f 115/19/36 119/20/36 116/19/36
f 119/20/36 115/19/36 120/20/36
f 116/19/35 119/20/35 115/19/35
f 120/20/35 115/19/35 119/20/35
f 118/20/38 115/19/38 113/19/38
f 115/19/38 118/20/38 120/20/38
f 113/19/37 115/19/37 118/20/37
f 120/20/37 118/20/37 115/19/37

