# Created by Kenney (www.kenney.nl)

mtllib template-wall-stairs.mtl

g template-wall-stairs

v 2 1.443823E-15 0 1 1 1
v -2 1.443823E-15 0 1 1 1
v 2 4.5 0 1 1 1
v 4.331469E-14 2.25 -0.6 1 1 1
v 2 4.5 -0.4 1 1 1
v -2 3.17641E-14 -0.4 1 1 1
v 2 1.443823E-15 -0.4 1 1 1
v 4.331469E-14 1.443823E-15 -0.6 1 1 1
v 1.167013 1.251608 -0.4832987 1 1 1
v 1.550511 1.251608 -0.4449489 1 1 1
v 1.600263 1.301608 -0.4399738 1 1 1
v 1.117261 1.301608 -0.4882739 1 1 1
v 1.600263 1.501608 -0.4399738 1 1 1
v 1.550511 1.551608 -0.4449489 1 1 1
v 1.117261 1.501608 -0.4882739 1 1 1
v 1.167013 1.551608 -0.4832987 1 1 1
v -0.2367349 0.5078134 -0.5763265 1 1 1
v -0.2367349 0.7078134 -0.5763265 1 1 1
v -0.2864868 0.7578134 -0.5713513 1 1 1
v -0.6699843 0.7578134 -0.5330016 1 1 1
v -0.7197362 0.7078134 -0.5280264 1 1 1
v -0.2864868 0.4578134 -0.5713513 1 1 1
v -0.7197362 0.5078134 -0.5280264 1 1 1
v -0.6699843 0.4578134 -0.5330016 1 1 1
v 1.605238 1.301608 -0.4897256 1 1 1
v 1.600262 1.301608 -0.4399737 1 1 1
v 1.605238 1.501608 -0.4897256 1 1 1
v 1.600262 1.501608 -0.4399738 1 1 1
v 1.555486 1.551608 -0.4947008 1 1 1
v 1.555486 1.251608 -0.4947008 1 1 1
v 1.171988 1.551608 -0.5330505 1 1 1
v 1.171988 1.251608 -0.5330505 1 1 1
v 1.122236 1.301608 -0.5380257 1 1 1
v 1.122236 1.501608 -0.5380257 1 1 1
v 1.167013 1.551608 -0.4832987 1 1 1
v 1.117261 1.501608 -0.4882739 1 1 1
v 1.550511 1.551608 -0.444949 1 1 1
v 1.550511 1.251608 -0.4449489 1 1 1
v 1.167013 1.251608 -0.4832987 1 1 1
v 1.117261 1.301608 -0.4882739 1 1 1
v -0.2367346 0.7078134 -0.5763265 1 1 1
v -0.2864865 0.7578134 -0.5713513 1 1 1
v -0.2417098 0.7078134 -0.6260784 1 1 1
v -0.2914617 0.7578134 -0.6211032 1 1 1
v -0.7197359 0.7078134 -0.5280264 1 1 1
v -0.7247111 0.7078134 -0.5777782 1 1 1
v -0.669984 0.7578134 -0.5330016 1 1 1
v -0.6749592 0.7578134 -0.5827534 1 1 1
v -0.2417098 0.5078133 -0.6260784 1 1 1
v -0.2914617 0.4578133 -0.6211032 1 1 1
v -0.6749592 0.4578133 -0.5827534 1 1 1
v -0.7247111 0.5078133 -0.5777782 1 1 1
v -0.2864865 0.4578133 -0.5713513 1 1 1
v -0.2367346 0.5078133 -0.5763265 1 1 1
v -0.669984 0.4578133 -0.5330015 1 1 1
v -0.7197359 0.5078133 -0.5280263 1 1 1

vn 0 0 1
vn 0 0 -1
vn -0.7474093 0.6643638 0
vn 0.7474093 -0.6643638 0
vn 1 0 0
vn -1 0 0
vn 0.09950371 0 -0.9950371
vn 0.05350643 0 -0.9985675
vn -0.05350643 0 0.9985675
vn -0.09950371 0 0.9950371
vn 0.09950371 0 0.9950371
vn -0.09950371 0 -0.9950371
vn 0.9192945 -0.3826835 0.0919295
vn 0.9192945 0.3826835 0.09192941
vn -0.9192945 -0.3826835 -0.09192941
vn -0.9192945 0.3826835 -0.0919295
vn 0.09950373 -1.192093E-07 -0.9950373
vn -0.09950373 1.192093E-07 0.9950373
vn -0.3807842 0.9238796 -0.03807854
vn 0.3807842 -0.9238796 0.03807854
vn 0.3807842 0.9238796 0.03807832
vn -0.3807842 -0.9238796 -0.03807832
vn 0.9192945 0.3826835 -0.0919295
vn 0.3807842 0.9238796 -0.03807854
vn -0.9192945 -0.3826835 0.0919295
vn -0.3807842 -0.9238796 0.03807854
vn -0.9192945 0.3826835 0.09192941
vn -0.3807842 0.9238796 0.03807832
vn 0.3807842 -0.9238796 -0.03807832
vn 0.9192945 -0.3826835 -0.09192941
vn -0.09950373 -1.192093E-07 -0.9950373
vn 0.09950373 1.192093E-07 0.9950373

vt 0.34375 0.145
vt 0.34375 0.225
vt 0.34375 0.185
vt 0.34375 0.1672508
vt 0.34375 0.1681397
vt 0.34375 0.1716952
vt 0.34375 0.1725841
vt 0.34375 0.1540278
vt 0.34375 0.1575834
vt 0.34375 0.1584722
vt 0.34375 0.1531389
vt 0.34375 0.1128492
vt 0.34375 0.1217382
vt 0.34375 0.1239604
vt 0.34375 0.110627
vt 0.34375 0.110627
vt 0.34375 0.08645836
vt 0.34375 0.0886806
vt 0.34375 0.07756948
vt 0.34375 0.07534725

usemtl colormap

f 3/2/1 2/1/1 1/1/1
f 1/1/2 2/1/2 3/2/2
f 6/1/3 5/2/3 4/3/3
f 5/2/3 6/1/3 2/1/3
f 5/2/3 2/1/3 3/2/3
f 4/3/4 5/2/4 6/1/4
f 2/1/4 6/1/4 5/2/4
f 3/2/4 2/1/4 5/2/4
f 3/2/5 7/1/5 5/2/5
f 7/1/5 3/2/5 1/1/5
f 5/2/6 7/1/6 3/2/6
f 1/1/6 3/2/6 7/1/6
f 4/3/8 7/1/7 8/1/2
f 7/1/7 4/3/8 9/4/7
f 10/4/7 7/1/7 9/4/7
f 11/5/7 7/1/7 10/4/7
f 9/4/7 4/3/8 12/5/7
f 7/1/7 11/5/7 5/2/7
f 5/2/7 11/5/7 13/6/7
f 5/2/7 13/6/7 14/7/7
f 5/2/7 14/7/7 4/3/8
f 12/5/7 4/3/8 15/6/7
f 16/7/7 4/3/8 14/7/7
f 15/6/7 4/3/8 16/7/7
f 8/1/1 7/1/10 4/3/9
f 9/4/10 4/3/9 7/1/10
f 9/4/10 7/1/10 10/4/10
f 10/4/10 7/1/10 11/5/10
f 12/5/10 4/3/9 9/4/10
f 5/2/10 11/5/10 7/1/10
f 13/6/10 11/5/10 5/2/10
f 14/7/10 13/6/10 5/2/10
f 4/3/9 14/7/10 5/2/10
f 15/6/10 4/3/9 12/5/10
f 14/7/10 4/3/9 16/7/10
f 16/7/10 4/3/9 15/6/10
f 18/9/11 17/8/11 4/3/9
f 19/10/11 18/9/11 4/3/9
f 19/10/11 4/3/9 20/10/11
f 20/10/11 4/3/9 21/9/11
f 4/3/9 17/8/11 8/1/1
f 22/11/11 8/1/1 17/8/11
f 4/3/9 6/1/11 21/9/11
f 6/1/11 8/1/1 22/11/11
f 21/9/11 6/1/11 23/8/11
f 24/11/11 6/1/11 22/11/11
f 24/11/11 23/8/11 6/1/11
f 4/3/8 17/8/12 18/9/12
f 4/3/8 18/9/12 19/10/12
f 20/10/12 4/3/8 19/10/12
f 21/9/12 4/3/8 20/10/12
f 8/1/2 17/8/12 4/3/8
f 17/8/12 8/1/2 22/11/12
f 21/9/12 6/1/12 4/3/8
f 22/11/12 8/1/2 6/1/12
f 23/8/12 6/1/12 21/9/12
f 22/11/12 6/1/12 24/11/12
f 6/1/12 23/8/12 24/11/12
f 27/13/14 26/12/13 25/12/13
f 26/12/13 27/13/14 28/13/14
f 25/12/16 26/12/16 27/13/15
f 28/13/15 27/13/15 26/12/16
f 25/12/17 29/14/17 27/13/17
f 29/14/17 25/12/17 30/15/17
f 29/14/17 30/15/17 31/14/17
f 31/14/17 30/15/17 32/15/17
f 31/14/17 32/15/17 33/12/17
f 31/14/17 33/12/17 34/13/17
f 27/13/18 29/14/18 25/12/18
f 30/15/18 25/12/18 29/14/18
f 31/14/18 30/15/18 29/14/18
f 32/15/18 30/15/18 31/14/18
f 33/12/18 32/15/18 31/14/18
f 34/13/18 33/12/18 31/14/18
f 31/14/19 36/13/16 35/14/19
f 36/13/16 31/14/19 34/13/16
f 35/14/20 36/13/13 31/14/20
f 34/13/13 31/14/20 36/13/13
f 27/13/14 37/14/21 28/13/14
f 37/14/21 27/13/14 29/14/21
f 28/13/15 37/14/22 27/13/15
f 29/14/22 27/13/15 37/14/22
f 30/15/20 26/12/13 38/16/20
f 26/12/13 30/15/20 25/12/13
f 38/16/19 26/12/16 30/15/19
f 25/12/16 30/15/19 26/12/16
f 37/14/21 31/14/19 35/14/19
f 31/14/19 37/14/21 29/14/21
f 35/14/20 31/14/20 37/14/22
f 29/14/22 37/14/22 31/14/20
f 32/15/22 38/16/20 39/16/22
f 38/16/20 32/15/22 30/15/20
f 39/16/21 38/16/19 32/15/21
f 30/15/19 32/15/21 38/16/19
f 40/12/15 32/15/22 39/16/22
f 32/15/22 40/12/15 33/12/15
f 39/16/21 32/15/21 40/12/14
f 33/12/14 40/12/14 32/15/21
f 38/16/17 28/13/17 26/12/17
f 28/13/17 38/16/17 37/14/17
f 37/14/17 38/16/17 39/16/17
f 37/14/17 39/16/17 35/14/17
f 35/14/17 39/16/17 40/12/17
f 35/14/17 40/12/17 36/13/17
f 26/12/18 28/13/18 38/16/18
f 37/14/18 38/16/18 28/13/18
f 39/16/18 38/16/18 37/14/18
f 35/14/18 39/16/18 37/14/18
f 40/12/18 39/16/18 35/14/18
f 36/13/18 40/12/18 35/14/18
f 36/13/16 33/12/15 40/12/15
f 33/12/15 36/13/16 34/13/16
f 40/12/14 33/12/14 36/13/13
f 34/13/13 36/13/13 33/12/14
f 43/17/23 42/18/24 41/17/23
f 42/18/24 43/17/23 44/18/24
f 41/17/25 42/18/26 43/17/25
f 44/18/26 43/17/25 42/18/26
f 47/18/28 46/17/27 45/17/27
f 46/17/27 47/18/28 48/18/28
f 45/17/30 46/17/30 47/18/29
f 48/18/29 47/18/29 46/17/30
f 50/20/31 43/17/31 49/19/31
f 43/17/31 50/20/31 44/18/31
f 44/18/31 50/20/31 51/20/31
f 44/18/31 51/20/31 48/18/31
f 48/18/31 51/20/31 52/19/31
f 48/18/31 52/19/31 46/17/31
f 49/19/32 43/17/32 50/20/32
f 44/18/32 50/20/32 43/17/32
f 51/20/32 50/20/32 44/18/32
f 48/18/32 51/20/32 44/18/32
f 52/19/32 51/20/32 48/18/32
f 46/17/32 52/19/32 48/18/32
f 50/20/29 54/19/30 53/20/29
f 54/19/30 50/20/29 49/19/30
f 53/20/28 54/19/27 50/20/28
f 49/19/27 50/20/28 54/19/27
f 44/18/24 47/18/28 42/18/24
f 47/18/28 44/18/24 48/18/28
f 42/18/26 47/18/29 44/18/26
f 48/18/29 44/18/26 47/18/29
f 56/19/25 51/20/26 55/20/26
f 51/20/26 56/19/25 52/19/25
f 55/20/24 51/20/24 56/19/23
f 52/19/23 56/19/23 51/20/24
f 43/17/23 54/19/30 49/19/30
f 54/19/30 43/17/23 41/17/23
f 49/19/27 54/19/27 43/17/25
f 41/17/25 43/17/25 54/19/27
f 55/20/26 50/20/29 53/20/29
f 50/20/29 55/20/26 51/20/26
f 53/20/28 50/20/28 55/20/24
f 51/20/24 55/20/24 50/20/28
f 53/20/31 41/17/31 54/19/31
f 41/17/31 53/20/31 42/18/31
f 42/18/31 53/20/31 55/20/31
f 42/18/31 55/20/31 47/18/31
f 47/18/31 55/20/31 56/19/31
f 47/18/31 56/19/31 45/17/31
f 54/19/32 41/17/32 53/20/32
f 42/18/32 53/20/32 41/17/32
f 55/20/32 53/20/32 42/18/32
f 47/18/32 55/20/32 42/18/32
f 56/19/32 55/20/32 47/18/32
f 45/17/32 56/19/32 47/18/32
f 45/17/27 52/19/25 56/19/25
f 52/19/25 45/17/27 46/17/27
f 56/19/23 52/19/23 45/17/30
f 46/17/30 45/17/30 52/19/23

g template-wall-stairs




usemtl colormap

f 3/2/1 2/1/1 1/1/1
f 1/1/2 2/1/2 3/2/2
f 6/1/3 5/2/3 4/3/3
f 5/2/3 6/1/3 2/1/3
f 5/2/3 2/1/3 3/2/3
f 4/3/4 5/2/4 6/1/4
f 2/1/4 6/1/4 5/2/4
f 3/2/4 2/1/4 5/2/4
f 3/2/5 7/1/5 5/2/5
f 7/1/5 3/2/5 1/1/5
f 5/2/6 7/1/6 3/2/6
f 1/1/6 3/2/6 7/1/6
f 4/3/8 7/1/7 8/1/2
f 7/1/7 4/3/8 9/4/7
f 10/4/7 7/1/7 9/4/7
f 11/5/7 7/1/7 10/4/7
f 9/4/7 4/3/8 12/5/7
f 7/1/7 11/5/7 5/2/7
f 5/2/7 11/5/7 13/6/7
f 5/2/7 13/6/7 14/7/7
f 5/2/7 14/7/7 4/3/8
f 12/5/7 4/3/8 15/6/7
f 16/7/7 4/3/8 14/7/7
f 15/6/7 4/3/8 16/7/7
f 8/1/1 7/1/10 4/3/9
f 9/4/10 4/3/9 7/1/10
f 9/4/10 7/1/10 10/4/10
f 10/4/10 7/1/10 11/5/10
f 12/5/10 4/3/9 9/4/10
f 5/2/10 11/5/10 7/1/10
f 13/6/10 11/5/10 5/2/10
f 14/7/10 13/6/10 5/2/10
f 4/3/9 14/7/10 5/2/10
f 15/6/10 4/3/9 12/5/10
f 14/7/10 4/3/9 16/7/10
f 16/7/10 4/3/9 15/6/10
f 18/9/11 17/8/11 4/3/9
f 19/10/11 18/9/11 4/3/9
f 19/10/11 4/3/9 20/10/11
f 20/10/11 4/3/9 21/9/11
f 4/3/9 17/8/11 8/1/1
f 22/11/11 8/1/1 17/8/11
f 4/3/9 6/1/11 21/9/11
f 6/1/11 8/1/1 22/11/11
f 21/9/11 6/1/11 23/8/11
f 24/11/11 6/1/11 22/11/11
f 24/11/11 23/8/11 6/1/11
f 4/3/8 17/8/12 18/9/12
f 4/3/8 18/9/12 19/10/12
f 20/10/12 4/3/8 19/10/12
f 21/9/12 4/3/8 20/10/12
f 8/1/2 17/8/12 4/3/8
f 17/8/12 8/1/2 22/11/12
f 21/9/12 6/1/12 4/3/8
f 22/11/12 8/1/2 6/1/12
f 23/8/12 6/1/12 21/9/12
f 22/11/12 6/1/12 24/11/12
f 6/1/12 23/8/12 24/11/12
f 27/13/14 26/12/13 25/12/13
f 26/12/13 27/13/14 28/13/14
f 25/12/16 26/12/16 27/13/15
f 28/13/15 27/13/15 26/12/16
f 25/12/17 29/14/17 27/13/17
f 29/14/17 25/12/17 30/15/17
f 29/14/17 30/15/17 31/14/17
f 31/14/17 30/15/17 32/15/17
f 31/14/17 32/15/17 33/12/17
f 31/14/17 33/12/17 34/13/17
f 27/13/18 29/14/18 25/12/18
f 30/15/18 25/12/18 29/14/18
f 31/14/18 30/15/18 29/14/18
f 32/15/18 30/15/18 31/14/18
f 33/12/18 32/15/18 31/14/18
f 34/13/18 33/12/18 31/14/18
f 31/14/19 36/13/16 35/14/19
f 36/13/16 31/14/19 34/13/16
f 35/14/20 36/13/13 31/14/20
f 34/13/13 31/14/20 36/13/13
f 27/13/14 37/14/21 28/13/14
f 37/14/21 27/13/14 29/14/21
f 28/13/15 37/14/22 27/13/15
f 29/14/22 27/13/15 37/14/22
f 30/15/20 26/12/13 38/16/20
f 26/12/13 30/15/20 25/12/13
f 38/16/19 26/12/16 30/15/19
f 25/12/16 30/15/19 26/12/16
f 37/14/21 31/14/19 35/14/19
f 31/14/19 37/14/21 29/14/21
f 35/14/20 31/14/20 37/14/22
f 29/14/22 37/14/22 31/14/20
f 32/15/22 38/16/20 39/16/22
f 38/16/20 32/15/22 30/15/20
f 39/16/21 38/16/19 32/15/21
f 30/15/19 32/15/21 38/16/19
f 40/12/15 32/15/22 39/16/22
f 32/15/22 40/12/15 33/12/15
f 39/16/21 32/15/21 40/12/14
f 33/12/14 40/12/14 32/15/21
f 38/16/17 28/13/17 26/12/17
f 28/13/17 38/16/17 37/14/17
f 37/14/17 38/16/17 39/16/17
f 37/14/17 39/16/17 35/14/17
f 35/14/17 39/16/17 40/12/17
f 35/14/17 40/12/17 36/13/17
f 26/12/18 28/13/18 38/16/18
f 37/14/18 38/16/18 28/13/18
f 39/16/18 38/16/18 37/14/18
f 35/14/18 39/16/18 37/14/18
f 40/12/18 39/16/18 35/14/18
f 36/13/18 40/12/18 35/14/18
f 36/13/16 33/12/15 40/12/15
f 33/12/15 36/13/16 34/13/16
f 40/12/14 33/12/14 36/13/13
f 34/13/13 36/13/13 33/12/14
f 43/17/23 42/18/24 41/17/23
f 42/18/24 43/17/23 44/18/24
f 41/17/25 42/18/26 43/17/25
f 44/18/26 43/17/25 42/18/26
f 47/18/28 46/17/27 45/17/27
f 46/17/27 47/18/28 48/18/28
f 45/17/30 46/17/30 47/18/29
f 48/18/29 47/18/29 46/17/30
f 50/20/31 43/17/31 49/19/31
f 43/17/31 50/20/31 44/18/31
f 44/18/31 50/20/31 51/20/31
f 44/18/31 51/20/31 48/18/31
f 48/18/31 51/20/31 52/19/31
f 48/18/31 52/19/31 46/17/31
f 49/19/32 43/17/32 50/20/32
f 44/18/32 50/20/32 43/17/32
f 51/20/32 50/20/32 44/18/32
f 48/18/32 51/20/32 44/18/32
f 52/19/32 51/20/32 48/18/32
f 46/17/32 52/19/32 48/18/32
f 50/20/29 54/19/30 53/20/29
f 54/19/30 50/20/29 49/19/30
f 53/20/28 54/19/27 50/20/28
f 49/19/27 50/20/28 54/19/27
f 44/18/24 47/18/28 42/18/24
f 47/18/28 44/18/24 48/18/28
f 42/18/26 47/18/29 44/18/26
f 48/18/29 44/18/26 47/18/29
f 56/19/25 51/20/26 55/20/26
f 51/20/26 56/19/25 52/19/25
f 55/20/24 51/20/24 56/19/23
f 52/19/23 56/19/23 51/20/24
f 43/17/23 54/19/30 49/19/30
f 54/19/30 43/17/23 41/17/23
f 49/19/27 54/19/27 43/17/25
f 41/17/25 43/17/25 54/19/27
f 55/20/26 50/20/29 53/20/29
f 50/20/29 55/20/26 51/20/26
f 53/20/28 50/20/28 55/20/24
f 51/20/24 55/20/24 50/20/28
f 53/20/31 41/17/31 54/19/31
f 41/17/31 53/20/31 42/18/31
f 42/18/31 53/20/31 55/20/31
f 42/18/31 55/20/31 47/18/31
f 47/18/31 55/20/31 56/19/31
f 47/18/31 56/19/31 45/17/31
f 54/19/32 41/17/32 53/20/32
f 42/18/32 53/20/32 41/17/32
f 55/20/32 53/20/32 42/18/32
f 47/18/32 55/20/32 42/18/32
f 56/19/32 55/20/32 47/18/32
f 45/17/32 56/19/32 47/18/32
f 45/17/27 52/19/25 56/19/25
f 52/19/25 45/17/27 46/17/27
f 56/19/23 52/19/23 45/17/30
f 46/17/30 45/17/30 52/19/23

