# Created by Kenney (www.kenney.nl)

mtllib template-floor-detail.mtl

g template-floor-detail

v -0.2255789 0 0.1721042 1 1 1
v -1.38469 0 -0.1384787 1 1 1
v -0.3316449 0.05 -0.01160758 1 1 1
v -1.200978 0.05 -0.2445447 1 1 1
v 1.211001 0.05 -0.9062624 1 1 1
v 0.9303682 0.05 -0.80022 1 1 1
v 1.104959 0.05 -1.186896 1 1 1
v 0.8243258 0.05 -1.080853 1 1 1
v -0.09870776 0.05 -0.8809408 1 1 1
v -0.9680409 0.05 -1.113878 1 1 1
v -0.1124574 0.1 1.175115 1 1 1
v -0.1831681 0 1.29759 1 1 1
v -0.2677488 0.1 0.5955597 1 1 1
v -0.3902233 0 0.5248491 1 1 1
v 0.4670981 0.1 1.019824 1 1 1
v 0.3118067 0.1 0.4402683 1 1 1
v 0.5895725 0 1.090534 1 1 1
v 0.08500398 0 -0.9870068 1 1 1
v -1.074107 0 -1.29759 1 1 1
v -1.227287 0.025 1.335641 1 1 1
v -1.517065 0.025 1.413287 1 1 1
v -1.304933 0.025 1.045863 1 1 1
v -1.59471 0.025 1.123509 1 1 1
v -1.55242 0 1.474524 1 1 1
v -1.655948 0 1.088154 1 1 1
v -1.16605 0 1.370996 1 1 1
v -1.269577 0 0.9846259 1 1 1
v 0.9012697 0 -0.735774 1 1 1
v 0.7598798 0 -1.109952 1 1 1
v 1.134058 0 -1.251342 1 1 1
v 1.275447 0 -0.8771639 1 1 1
v 1.578229 0 1.345028 1 1 1
v 1.560551 0.025 1.375647 1 1 1
v 1.385044 0 1.396792 1 1 1
v 1.415662 0.025 1.41447 1 1 1
v 1.599374 0.025 1.520536 1 1 1
v 1.454485 0.025 1.559358 1 1 1
v 0.3825174 0 0.3177938 1 1 1
v 1.629993 0 1.538213 1 1 1
v 1.436807 0 1.589977 1 1 1
v -0.737332 0 -1.771971 1 1 1
v -0.7550097 0.025 -1.741352 1 1 1
v -0.9305172 0 -1.720207 1 1 1
v -0.8998986 0.025 -1.702529 1 1 1
v -0.7161869 0.025 -1.596463 1 1 1
v -0.8610757 0.025 -1.55764 1 1 1
v -0.8787534 0 -1.527022 1 1 1
v -0.6855682 0 -1.578785 1 1 1
v -0.6865153 0.05 0.5110617 1 1 1
v -0.6865153 0.05 0.8110617 1 1 1
v -0.9865153 0.05 0.5110617 1 1 1
v -0.9865153 0.05 0.8110617 1 1 1
v -0.6365153 0 0.4610618 1 1 1
v -0.6365153 0 0.8610617 1 1 1
v -1.036515 0 0.4610618 1 1 1
v -1.036515 0 0.8610617 1 1 1
v 0.1962377 0 -0.594766 1 1 1
v 0.2212377 0.05 -0.569766 1 1 1
v 0.1962377 0 -0.394766 1 1 1
v 0.2212377 0.05 -0.419766 1 1 1
v 0.3712377 0.05 -0.569766 1 1 1
v 0.3712377 0.05 -0.419766 1 1 1
v 0.3962377 0 -0.594766 1 1 1
v 0.3962377 0 -0.394766 1 1 1
v 0.8239029 0.025 0.05306924 1 1 1
v 0.5341252 0.025 0.130715 1 1 1
v 0.7462572 0.025 -0.2367085 1 1 1
v 0.4564795 0.025 -0.1590628 1 1 1
v 0.4987698 0 0.1919522 1 1 1
v 0.3952422 0 -0.1944181 1 1 1
v 1.323453 0.05 0.4701758 1 1 1
v 1.245807 0.05 0.7599536 1 1 1
v 1.033675 0.05 0.3925301 1 1 1
v 0.9560292 0.05 0.6823078 1 1 1
v 1.38469 0 0.4348205 1 1 1
v 1.281162 0 0.8211908 1 1 1
v 0.8851402 0 0.08842457 1 1 1
v 0.7816125 0 -0.2979457 1 1 1
v 0.8947919 0 0.7176632 1 1 1
v 0.9983196 0 0.3312929 1 1 1
v 2 0 -2 1 1 1
v 2 0 2 1 1 1
v -2 0 -2 1 1 1
v -2 0 2 1 1 1

vn 0.1147078 0.9733285 0.1986798
vn -0.1986798 0.9733285 0.1147078
vn 0.08566773 0.9852128 0.1483808
vn -0.1483808 0.9852128 0.08566773
vn -0.08566773 -0.9852128 -0.1483808
vn 0.1986798 -0.9733285 -0.1147078
vn -0.1147078 -0.9733285 -0.1986798
vn 0.1483808 -0.9852128 -0.08566773
vn 0.3869255 0.90541 0.1747036
vn -0.1747036 0.90541 0.3869255
vn 0.1747036 0.90541 -0.3869255
vn -0.3869255 0.90541 -0.1747036
vn -0.1747036 -0.90541 0.3869255
vn 0.1747036 -0.90541 -0.3869255
vn -0.3869255 -0.90541 -0.1747036
vn 0.3869255 -0.90541 0.1747036
vn 0.1483808 0.9852128 -0.08566773
vn -0.08566773 0.9852128 -0.1483808
vn 0.08566773 -0.9852128 0.1483808
vn -0.1483808 -0.9852128 0.08566773
vn -0.2122691 0.90541 0.3676609
vn -0.2886751 0.8164966 0.5
vn -0.3676609 0.90541 -0.2122691
vn -0.5 0.8164966 -0.2886751
vn 0.3676609 -0.90541 0.2122691
vn 0.2886751 -0.8164966 -0.5
vn 0.2122691 -0.90541 -0.3676609
vn 0.5 -0.8164966 0.2886751
vn 0.3676609 0.90541 0.2122691
vn 0.2122691 0.90541 -0.3676609
vn -0.2122691 -0.90541 0.3676609
vn -0.3676609 -0.90541 -0.2122691
vn 0.5 0.8164966 0.2886751
vn -0.5 -0.8164966 -0.2886751
vn 0.1986798 0.9733285 -0.1147078
vn -0.1986798 -0.9733285 0.1147078
vn -0.1147078 0.9733285 -0.1986798
vn 0.1147078 -0.9733285 0.1986798
vn 0.2146847 0.9687865 0.1239483
vn -0.1239483 0.9687865 0.2146847
vn 0.1239483 0.9687865 -0.2146847
vn -0.2146847 0.9687865 -0.1239483
vn -0.1239483 -0.9687865 0.2146847
vn 0.1239483 -0.9687865 -0.2146847
vn -0.2146847 -0.9687865 -0.1239483
vn 0.2146847 -0.9687865 0.1239483
vn -0.1666667 0.9428091 0.2886752
vn -0.2886752 0.9428091 -0.1666667
vn 0.1666667 -0.9428091 -0.2886752
vn 0.2886752 -0.9428091 0.1666667
vn 0.2886752 0.9428091 0.1666667
vn 0.1666667 0.9428091 -0.2886752
vn -0.1666667 -0.9428091 0.2886752
vn -0.2886752 -0.9428091 -0.1666667
vn -0.2375879 0.8164966 0.5261989
vn -0.5261989 0.8164966 -0.2375879
vn 0.2375879 -0.8164966 -0.5261989
vn 0.5261989 -0.8164966 0.2375879
vn 0.2375879 0.8164966 -0.5261989
vn -0.2375879 -0.8164966 0.5261989
vn 0.5261989 0.8164966 0.2375879
vn -0.5261989 -0.8164966 -0.2375879
vn 0.2886751 0.8164966 -0.5
vn -0.2886751 -0.8164966 0.5
vn 0.3001938 0.9054101 -0.3001938
vn 0.3001938 0.9054101 0.3001938
vn -0.3001938 0.9054101 -0.3001938
vn -0.3001938 0.9054101 0.3001938
vn 0.3001938 -0.9054101 0.3001938
vn -0.3001938 -0.9054101 -0.3001938
vn -0.3001938 -0.9054101 0.3001938
vn 0.3001938 -0.9054101 -0.3001938
vn 0.4082483 0.8164966 -0.4082483
vn 0.4082483 0.8164966 0.4082483
vn -0.4082483 -0.8164966 -0.4082483
vn -0.4082483 -0.8164966 0.4082483
vn -0.4082483 0.8164966 -0.4082483
vn 0.4082483 -0.8164966 0.4082483
vn -0.4082483 0.8164966 0.4082483
vn 0.4082483 -0.8164966 -0.4082483
vn -0.5773503 0.5773503 -0.5773503
vn -0.4247964 0.7994348 -0.4247964
vn -0.5773503 0.5773503 0.5773503
vn -0.4247964 0.7994348 0.4247964
vn 0.5773503 -0.5773503 -0.5773503
vn 0.4247964 -0.7994348 0.4247964
vn 0.5773503 -0.5773503 0.5773503
vn 0.4247964 -0.7994348 -0.4247964
vn 0.4247964 0.7994348 -0.4247964
vn 0.4247964 0.7994348 0.4247964
vn -0.4247964 -0.7994348 -0.4247964
vn -0.4247964 -0.7994348 0.4247964
vn 0.5773503 0.5773503 -0.5773503
vn -0.5773503 -0.5773503 0.5773503
vn 0.5773503 0.5773503 0.5773503
vn -0.5773503 -0.5773503 -0.5773503
vn 0.3676609 0.90541 -0.2122691
vn 0.2122691 0.90541 0.3676609
vn -0.2122691 0.90541 -0.3676609
vn -0.3676609 0.90541 0.2122691
vn 0.2122691 -0.90541 0.3676609
vn -0.2122691 -0.90541 -0.3676609
vn -0.3676609 -0.90541 0.2122691
vn 0.3676609 -0.90541 -0.2122691
vn 0.5 0.8164966 -0.2886751
vn 0.2886751 0.8164966 0.5
vn -0.2886751 -0.8164966 -0.5
vn -0.5 -0.8164966 0.2886751
vn -0.5 0.8164966 0.2886751
vn 0.5 -0.8164966 -0.2886751
vn -0.2886751 0.8164966 -0.5
vn 0.2886751 -0.8164966 0.5
vn 0 1 0
vn 0 -1 0

vt 0.46875 0.025
vt 0.46875 0.065
vt 0.46875 0.105
vt 0.46875 0.045
vt 0.13 0.755
vt 0.13 0.995
vt 0.37 0.755
vt 0.37 0.995

usemtl colormap

f 3/2/3 2/1/2 1/1/1
f 2/1/2 3/2/3 4/2/4
f 1/1/7 2/1/6 3/2/5
f 4/2/8 3/2/5 2/1/6
f 7/2/11 6/2/10 5/2/9
f 6/2/10 7/2/11 8/2/12
f 5/2/15 6/2/14 7/2/13
f 8/2/16 7/2/13 6/2/14
f 10/2/18 3/2/3 9/2/17
f 3/2/3 10/2/18 4/2/4
f 9/2/20 3/2/5 10/2/19
f 4/2/8 10/2/19 3/2/5
f 13/3/23 12/1/22 11/3/21
f 12/1/22 13/3/23 14/1/24
f 11/3/27 12/1/26 13/3/25
f 14/1/28 13/3/25 12/1/26
f 16/3/30 11/3/21 15/3/29
f 11/3/21 16/3/30 13/3/23
f 15/3/32 11/3/27 16/3/31
f 13/3/25 16/3/31 11/3/27
f 15/3/29 12/1/22 17/1/33
f 12/1/22 15/3/29 11/3/21
f 17/1/34 12/1/26 15/3/32
f 11/3/27 15/3/32 12/1/26
f 9/2/17 1/1/1 18/1/35
f 1/1/1 9/2/17 3/2/3
f 18/1/36 1/1/7 9/2/20
f 3/2/5 9/2/20 1/1/7
f 19/1/37 4/2/4 10/2/18
f 4/2/4 19/1/37 2/1/2
f 10/2/19 4/2/8 19/1/38
f 2/1/6 19/1/38 4/2/8
f 22/4/41 21/4/40 20/4/39
f 21/4/40 22/4/41 23/4/42
f 20/4/45 21/4/44 22/4/43
f 23/4/46 22/4/43 21/4/44
f 23/4/42 24/1/47 21/4/40
f 24/1/47 23/4/42 25/1/48
f 21/4/44 24/1/49 23/4/46
f 25/1/50 23/4/46 24/1/49
f 27/1/52 20/4/39 26/1/51
f 20/4/39 27/1/52 22/4/41
f 26/1/54 20/4/45 27/1/53
f 22/4/43 27/1/53 20/4/45
f 25/1/48 22/4/41 27/1/52
f 22/4/41 25/1/48 23/4/42
f 27/1/53 22/4/43 25/1/50
f 23/4/46 25/1/50 22/4/43
f 8/2/12 28/1/55 6/2/10
f 28/1/55 8/2/12 29/1/56
f 6/2/14 28/1/57 8/2/16
f 29/1/58 8/2/16 28/1/57
f 29/1/56 7/2/11 30/1/59
f 7/2/11 29/1/56 8/2/12
f 30/1/60 7/2/13 29/1/58
f 8/2/16 29/1/58 7/2/13
f 5/2/9 28/1/55 31/1/61
f 28/1/55 5/2/9 6/2/10
f 31/1/62 28/1/57 5/2/15
f 6/2/14 5/2/15 28/1/57
f 34/1/24 33/4/30 32/1/63
f 33/4/30 34/1/24 35/4/23
f 32/1/64 33/4/31 34/1/28
f 35/4/25 34/1/28 33/4/31
f 30/1/59 5/2/9 31/1/61
f 5/2/9 30/1/59 7/2/11
f 31/1/62 5/2/15 30/1/60
f 7/2/13 30/1/60 5/2/15
f 33/4/30 37/4/21 36/4/29
f 37/4/21 33/4/30 35/4/23
f 36/4/32 37/4/27 33/4/31
f 35/4/25 33/4/31 37/4/27
f 38/1/63 15/3/29 17/1/33
f 15/3/29 38/1/63 16/3/30
f 17/1/34 15/3/32 38/1/64
f 16/3/31 38/1/64 15/3/32
f 36/4/29 40/1/22 39/1/33
f 40/1/22 36/4/29 37/4/21
f 39/1/34 40/1/26 36/4/32
f 37/4/27 36/4/32 40/1/26
f 20/4/39 24/1/47 26/1/51
f 24/1/47 20/4/39 21/4/40
f 26/1/54 24/1/49 20/4/45
f 21/4/44 20/4/45 24/1/49
f 14/1/24 16/3/30 38/1/63
f 16/3/30 14/1/24 13/3/23
f 38/1/64 16/3/31 14/1/28
f 13/3/25 14/1/28 16/3/31
f 32/1/63 36/4/29 39/1/33
f 36/4/29 32/1/63 33/4/30
f 39/1/34 36/4/32 32/1/64
f 33/4/31 32/1/64 36/4/32
f 19/1/37 9/2/17 18/1/35
f 9/2/17 19/1/37 10/2/18
f 18/1/36 9/2/20 19/1/38
f 10/2/19 19/1/38 9/2/20
f 43/1/24 42/4/30 41/1/63
f 42/4/30 43/1/24 44/4/23
f 41/1/64 42/4/31 43/1/28
f 44/4/25 43/1/28 42/4/31
f 35/4/23 40/1/22 37/4/21
f 40/1/22 35/4/23 34/1/24
f 37/4/27 40/1/26 35/4/25
f 34/1/28 35/4/25 40/1/26
f 42/4/30 46/4/21 45/4/29
f 46/4/21 42/4/30 44/4/23
f 45/4/32 46/4/27 42/4/31
f 44/4/25 42/4/31 46/4/27
f 44/4/23 47/1/22 46/4/21
f 47/1/22 44/4/23 43/1/24
f 46/4/27 47/1/26 44/4/25
f 43/1/28 44/4/25 47/1/26
f 41/1/63 45/4/29 48/1/33
f 45/4/29 41/1/63 42/4/30
f 48/1/34 45/4/32 41/1/64
f 42/4/31 41/1/64 45/4/32
f 45/4/29 47/1/22 48/1/33
f 47/1/22 45/4/29 46/4/21
f 48/1/34 47/1/26 45/4/32
f 46/4/27 45/4/32 47/1/26
f 51/2/67 50/2/66 49/2/65
f 50/2/66 51/2/67 52/2/68
f 49/2/71 50/2/70 51/2/69
f 52/2/72 51/2/69 50/2/70
f 49/2/65 54/1/74 53/1/73
f 54/1/74 49/2/65 50/2/66
f 53/1/76 54/1/75 49/2/71
f 50/2/70 49/2/71 54/1/75
f 55/1/77 49/2/65 53/1/73
f 49/2/65 55/1/77 51/2/67
f 53/1/76 49/2/71 55/1/78
f 51/2/69 55/1/78 49/2/71
f 50/2/66 56/1/79 54/1/74
f 56/1/79 50/2/66 52/2/68
f 54/1/75 56/1/80 50/2/70
f 52/2/72 50/2/70 56/1/80
f 55/1/77 52/2/68 51/2/67
f 52/2/68 55/1/77 56/1/79
f 51/2/69 52/2/72 55/1/78
f 56/1/80 55/1/78 52/2/72
f 59/1/83 58/2/82 57/1/81
f 58/2/82 59/1/83 60/2/84
f 57/1/87 58/2/86 59/1/85
f 60/2/88 59/1/85 58/2/86
f 58/2/82 62/2/90 61/2/89
f 62/2/90 58/2/82 60/2/84
f 61/2/92 62/2/91 58/2/86
f 60/2/88 58/2/86 62/2/91
f 58/2/82 63/1/93 57/1/81
f 63/1/93 58/2/82 61/2/89
f 57/1/87 63/1/94 58/2/86
f 61/2/92 58/2/86 63/1/94
f 62/2/90 59/1/83 64/1/95
f 59/1/83 62/2/90 60/2/84
f 64/1/96 59/1/85 62/2/91
f 60/2/88 62/2/91 59/1/85
f 61/2/89 64/1/95 63/1/93
f 64/1/95 61/2/89 62/2/90
f 63/1/94 64/1/96 61/2/92
f 62/2/91 61/2/92 64/1/96
f 67/4/41 66/4/40 65/4/39
f 66/4/40 67/4/41 68/4/42
f 65/4/45 66/4/44 67/4/43
f 68/4/46 67/4/43 66/4/44
f 68/4/42 69/1/47 66/4/40
f 69/1/47 68/4/42 70/1/48
f 66/4/44 69/1/49 68/4/46
f 70/1/50 68/4/46 69/1/49
f 73/2/99 72/2/98 71/2/97
f 72/2/98 73/2/99 74/2/100
f 71/2/103 72/2/102 73/2/101
f 74/2/104 73/2/101 72/2/102
f 71/2/97 76/1/106 75/1/105
f 76/1/106 71/2/97 72/2/98
f 75/1/108 76/1/107 71/2/103
f 72/2/102 71/2/103 76/1/107
f 65/4/39 69/1/47 77/1/51
f 69/1/47 65/4/39 66/4/40
f 77/1/54 69/1/49 65/4/45
f 66/4/44 65/4/45 69/1/49
f 70/1/48 67/4/41 78/1/52
f 67/4/41 70/1/48 68/4/42
f 78/1/53 67/4/43 70/1/50
f 68/4/46 70/1/50 67/4/43
f 72/2/98 79/1/109 76/1/106
f 79/1/109 72/2/98 74/2/100
f 76/1/107 79/1/110 72/2/102
f 74/2/104 72/2/102 79/1/110
f 80/1/111 71/2/97 75/1/105
f 71/2/97 80/1/111 73/2/99
f 75/1/108 71/2/103 80/1/112
f 73/2/101 80/1/112 71/2/103
f 80/1/111 74/2/100 73/2/99
f 74/2/100 80/1/111 79/1/109
f 73/2/101 74/2/104 80/1/112
f 79/1/110 80/1/112 74/2/104
f 78/1/52 65/4/39 77/1/51
f 65/4/39 78/1/52 67/4/41
f 77/1/54 65/4/45 78/1/53
f 67/4/43 78/1/53 65/4/45
f 83/7/113 82/6/113 81/5/113
f 82/6/113 83/7/113 84/8/113
f 81/5/114 82/6/114 83/7/114
f 84/8/114 83/7/114 82/6/114

g template-floor-detail




usemtl colormap

f 3/2/3 2/1/2 1/1/1
f 2/1/2 3/2/3 4/2/4
f 1/1/7 2/1/6 3/2/5
f 4/2/8 3/2/5 2/1/6
f 7/2/11 6/2/10 5/2/9
f 6/2/10 7/2/11 8/2/12
f 5/2/15 6/2/14 7/2/13
f 8/2/16 7/2/13 6/2/14
f 10/2/18 3/2/3 9/2/17
f 3/2/3 10/2/18 4/2/4
f 9/2/20 3/2/5 10/2/19
f 4/2/8 10/2/19 3/2/5
f 13/3/23 12/1/22 11/3/21
f 12/1/22 13/3/23 14/1/24
f 11/3/27 12/1/26 13/3/25
f 14/1/28 13/3/25 12/1/26
f 16/3/30 11/3/21 15/3/29
f 11/3/21 16/3/30 13/3/23
f 15/3/32 11/3/27 16/3/31
f 13/3/25 16/3/31 11/3/27
f 15/3/29 12/1/22 17/1/33
f 12/1/22 15/3/29 11/3/21
f 17/1/34 12/1/26 15/3/32
f 11/3/27 15/3/32 12/1/26
f 9/2/17 1/1/1 18/1/35
f 1/1/1 9/2/17 3/2/3
f 18/1/36 1/1/7 9/2/20
f 3/2/5 9/2/20 1/1/7
f 19/1/37 4/2/4 10/2/18
f 4/2/4 19/1/37 2/1/2
f 10/2/19 4/2/8 19/1/38
f 2/1/6 19/1/38 4/2/8
f 22/4/41 21/4/40 20/4/39
f 21/4/40 22/4/41 23/4/42
f 20/4/45 21/4/44 22/4/43
f 23/4/46 22/4/43 21/4/44
f 23/4/42 24/1/47 21/4/40
f 24/1/47 23/4/42 25/1/48
f 21/4/44 24/1/49 23/4/46
f 25/1/50 23/4/46 24/1/49
f 27/1/52 20/4/39 26/1/51
f 20/4/39 27/1/52 22/4/41
f 26/1/54 20/4/45 27/1/53
f 22/4/43 27/1/53 20/4/45
f 25/1/48 22/4/41 27/1/52
f 22/4/41 25/1/48 23/4/42
f 27/1/53 22/4/43 25/1/50
f 23/4/46 25/1/50 22/4/43
f 8/2/12 28/1/55 6/2/10
f 28/1/55 8/2/12 29/1/56
f 6/2/14 28/1/57 8/2/16
f 29/1/58 8/2/16 28/1/57
f 29/1/56 7/2/11 30/1/59
f 7/2/11 29/1/56 8/2/12
f 30/1/60 7/2/13 29/1/58
f 8/2/16 29/1/58 7/2/13
f 5/2/9 28/1/55 31/1/61
f 28/1/55 5/2/9 6/2/10
f 31/1/62 28/1/57 5/2/15
f 6/2/14 5/2/15 28/1/57
f 34/1/24 33/4/30 32/1/63
f 33/4/30 34/1/24 35/4/23
f 32/1/64 33/4/31 34/1/28
f 35/4/25 34/1/28 33/4/31
f 30/1/59 5/2/9 31/1/61
f 5/2/9 30/1/59 7/2/11
f 31/1/62 5/2/15 30/1/60
f 7/2/13 30/1/60 5/2/15
f 33/4/30 37/4/21 36/4/29
f 37/4/21 33/4/30 35/4/23
f 36/4/32 37/4/27 33/4/31
f 35/4/25 33/4/31 37/4/27
f 38/1/63 15/3/29 17/1/33
f 15/3/29 38/1/63 16/3/30
f 17/1/34 15/3/32 38/1/64
f 16/3/31 38/1/64 15/3/32
f 36/4/29 40/1/22 39/1/33
f 40/1/22 36/4/29 37/4/21
f 39/1/34 40/1/26 36/4/32
f 37/4/27 36/4/32 40/1/26
f 20/4/39 24/1/47 26/1/51
f 24/1/47 20/4/39 21/4/40
f 26/1/54 24/1/49 20/4/45
f 21/4/44 20/4/45 24/1/49
f 14/1/24 16/3/30 38/1/63
f 16/3/30 14/1/24 13/3/23
f 38/1/64 16/3/31 14/1/28
f 13/3/25 14/1/28 16/3/31
f 32/1/63 36/4/29 39/1/33
f 36/4/29 32/1/63 33/4/30
f 39/1/34 36/4/32 32/1/64
f 33/4/31 32/1/64 36/4/32
f 19/1/37 9/2/17 18/1/35
f 9/2/17 19/1/37 10/2/18
f 18/1/36 9/2/20 19/1/38
f 10/2/19 19/1/38 9/2/20
f 43/1/24 42/4/30 41/1/63
f 42/4/30 43/1/24 44/4/23
f 41/1/64 42/4/31 43/1/28
f 44/4/25 43/1/28 42/4/31
f 35/4/23 40/1/22 37/4/21
f 40/1/22 35/4/23 34/1/24
f 37/4/27 40/1/26 35/4/25
f 34/1/28 35/4/25 40/1/26
f 42/4/30 46/4/21 45/4/29
f 46/4/21 42/4/30 44/4/23
f 45/4/32 46/4/27 42/4/31
f 44/4/25 42/4/31 46/4/27
f 44/4/23 47/1/22 46/4/21
f 47/1/22 44/4/23 43/1/24
f 46/4/27 47/1/26 44/4/25
f 43/1/28 44/4/25 47/1/26
f 41/1/63 45/4/29 48/1/33
f 45/4/29 41/1/63 42/4/30
f 48/1/34 45/4/32 41/1/64
f 42/4/31 41/1/64 45/4/32
f 45/4/29 47/1/22 48/1/33
f 47/1/22 45/4/29 46/4/21
f 48/1/34 47/1/26 45/4/32
f 46/4/27 45/4/32 47/1/26
f 51/2/67 50/2/66 49/2/65
f 50/2/66 51/2/67 52/2/68
f 49/2/71 50/2/70 51/2/69
f 52/2/72 51/2/69 50/2/70
f 49/2/65 54/1/74 53/1/73
f 54/1/74 49/2/65 50/2/66
f 53/1/76 54/1/75 49/2/71
f 50/2/70 49/2/71 54/1/75
f 55/1/77 49/2/65 53/1/73
f 49/2/65 55/1/77 51/2/67
f 53/1/76 49/2/71 55/1/78
f 51/2/69 55/1/78 49/2/71
f 50/2/66 56/1/79 54/1/74
f 56/1/79 50/2/66 52/2/68
f 54/1/75 56/1/80 50/2/70
f 52/2/72 50/2/70 56/1/80
f 55/1/77 52/2/68 51/2/67
f 52/2/68 55/1/77 56/1/79
f 51/2/69 52/2/72 55/1/78
f 56/1/80 55/1/78 52/2/72
f 59/1/83 58/2/82 57/1/81
f 58/2/82 59/1/83 60/2/84
f 57/1/87 58/2/86 59/1/85
f 60/2/88 59/1/85 58/2/86
f 58/2/82 62/2/90 61/2/89
f 62/2/90 58/2/82 60/2/84
f 61/2/92 62/2/91 58/2/86
f 60/2/88 58/2/86 62/2/91
f 58/2/82 63/1/93 57/1/81
f 63/1/93 58/2/82 61/2/89
f 57/1/87 63/1/94 58/2/86
f 61/2/92 58/2/86 63/1/94
f 62/2/90 59/1/83 64/1/95
f 59/1/83 62/2/90 60/2/84
f 64/1/96 59/1/85 62/2/91
f 60/2/88 62/2/91 59/1/85
f 61/2/89 64/1/95 63/1/93
f 64/1/95 61/2/89 62/2/90
f 63/1/94 64/1/96 61/2/92
f 62/2/91 61/2/92 64/1/96
f 67/4/41 66/4/40 65/4/39
f 66/4/40 67/4/41 68/4/42
f 65/4/45 66/4/44 67/4/43
f 68/4/46 67/4/43 66/4/44
f 68/4/42 69/1/47 66/4/40
f 69/1/47 68/4/42 70/1/48
f 66/4/44 69/1/49 68/4/46
f 70/1/50 68/4/46 69/1/49
f 73/2/99 72/2/98 71/2/97
f 72/2/98 73/2/99 74/2/100
f 71/2/103 72/2/102 73/2/101
f 74/2/104 73/2/101 72/2/102
f 71/2/97 76/1/106 75/1/105
f 76/1/106 71/2/97 72/2/98
f 75/1/108 76/1/107 71/2/103
f 72/2/102 71/2/103 76/1/107
f 65/4/39 69/1/47 77/1/51
f 69/1/47 65/4/39 66/4/40
f 77/1/54 69/1/49 65/4/45
f 66/4/44 65/4/45 69/1/49
f 70/1/48 67/4/41 78/1/52
f 67/4/41 70/1/48 68/4/42
f 78/1/53 67/4/43 70/1/50
f 68/4/46 70/1/50 67/4/43
f 72/2/98 79/1/109 76/1/106
f 79/1/109 72/2/98 74/2/100
f 76/1/107 79/1/110 72/2/102
f 74/2/104 72/2/102 79/1/110
f 80/1/111 71/2/97 75/1/105
f 71/2/97 80/1/111 73/2/99
f 75/1/108 71/2/103 80/1/112
f 73/2/101 80/1/112 71/2/103
f 80/1/111 74/2/100 73/2/99
f 74/2/100 80/1/111 79/1/109
f 73/2/101 74/2/104 80/1/112
f 79/1/110 80/1/112 74/2/104
f 78/1/52 65/4/39 77/1/51
f 65/4/39 78/1/52 67/4/41
f 77/1/54 65/4/45 78/1/53
f 67/4/43 78/1/53 65/4/45
f 83/7/113 82/6/113 81/5/113
f 82/6/113 83/7/113 84/8/113
f 81/5/114 82/6/114 83/7/114
f 84/8/114 83/7/114 82/6/114

