# Created by Kenney (www.kenney.nl)

mtllib template-wall-top.mtl

g template-wall-top

v -2 0 -0.4 1 1 1
v -2 4.5 -0.4 1 1 1
v -2 0 0 1 1 1
v -2 4.5 0 1 1 1
v 2 4.5 -0.4 1 1 1
v 2 0 -0.4 1 1 1
v 2 4.5 -5.960464E-08 1 1 1
v 2 0 -5.960464E-08 1 1 1
v -8.940795E-09 4.5 -0.6 1 1 1
v 1.484265 1.460278 -0.4515735 1 1 1
v 1.484265 1.660278 -0.4515735 1 1 1
v 1.434513 1.710278 -0.4565487 1 1 1
v 1.434513 1.410278 -0.4565487 1 1 1
v 1.051016 1.410278 -0.4948984 1 1 1
v 1.051016 1.710278 -0.4948984 1 1 1
v 1.001264 1.660278 -0.4998736 1 1 1
v 1.001264 1.460278 -0.4998736 1 1 1
v -8.940795E-09 0 -0.6 1 1 1
v -1.03653 3.29453 -0.496347 1 1 1
v -1.03653 3.49453 -0.496347 1 1 1
v -1.086282 3.54453 -0.4913718 1 1 1
v -1.46978 3.54453 -0.453022 1 1 1
v -1.519532 3.49453 -0.4480468 1 1 1
v -1.519532 3.29453 -0.4480468 1 1 1
v -0.3806141 3.053556 -0.5619386 1 1 1
v -1.086282 3.24453 -0.4913718 1 1 1
v -1.46978 3.24453 -0.453022 1 1 1
v -0.3129516 2.985556 -0.5687048 1 1 1
v -0.9021707 3.053556 -0.5097829 1 1 1
v -0.9698333 2.985556 -0.5030167 1 1 1
v -0.3129516 2.713556 -0.5687048 1 1 1
v -0.9698333 2.713556 -0.5030167 1 1 1
v -1.132364 0.8070278 -0.4867636 1 1 1
v -0.9021707 2.645556 -0.5097829 1 1 1
v -0.3806141 2.645556 -0.5619386 1 1 1
v -1.082612 0.7570278 -0.4917388 1 1 1
v -1.082612 0.5570278 -0.4917388 1 1 1
v -1.132364 0.5070278 -0.4867636 1 1 1
v -1.515861 0.5070278 -0.4484138 1 1 1
v -1.565613 0.5570278 -0.4434386 1 1 1
v -1.515861 0.8070278 -0.4484138 1 1 1
v -1.565613 0.7570278 -0.4434386 1 1 1
v 1.489241 1.460277 -0.5013254 1 1 1
v 1.484266 1.460277 -0.4515735 1 1 1
v 1.489241 1.660277 -0.5013254 1 1 1
v 1.484266 1.660277 -0.4515736 1 1 1
v 1.001265 1.660277 -0.4998736 1 1 1
v 1.00624 1.660277 -0.5496255 1 1 1
v 1.051017 1.710277 -0.4948985 1 1 1
v 1.055992 1.710277 -0.5446503 1 1 1
v 1.43949 1.410277 -0.5063006 1 1 1
v 1.43949 1.710277 -0.5063006 1 1 1
v 1.055992 1.410277 -0.5446503 1 1 1
v 1.00624 1.460277 -0.5496255 1 1 1
v 1.434514 1.710277 -0.4565487 1 1 1
v 1.434514 1.410277 -0.4565487 1 1 1
v 1.051017 1.410277 -0.4948984 1 1 1
v 1.001265 1.460277 -0.4998736 1 1 1
v -1.565614 0.5570276 -0.4434387 1 1 1
v -1.570589 0.5570276 -0.4931905 1 1 1
v -1.565614 0.7570276 -0.4434387 1 1 1
v -1.570589 0.7570276 -0.4931906 1 1 1
v -1.515862 0.8070277 -0.4484139 1 1 1
v -1.520838 0.8070277 -0.4981658 1 1 1
v -1.087588 0.5570276 -0.5414907 1 1 1
v -1.087588 0.7570276 -0.5414907 1 1 1
v -1.13734 0.5070276 -0.5365155 1 1 1
v -1.13734 0.8070277 -0.5365155 1 1 1
v -1.520838 0.5070276 -0.4981657 1 1 1
v -1.082613 0.5570276 -0.4917388 1 1 1
v -1.132365 0.5070276 -0.4867636 1 1 1
v -1.132365 0.8070277 -0.4867637 1 1 1
v -1.082613 0.7570276 -0.4917388 1 1 1
v -1.515862 0.5070276 -0.4484138 1 1 1
v -0.9698329 2.713556 -0.5030167 1 1 1
v -0.9748081 2.713556 -0.5527686 1 1 1
v -0.9698329 2.985556 -0.5030167 1 1 1
v -0.9748081 2.985556 -0.5527686 1 1 1
v -0.3806137 3.053556 -0.5619386 1 1 1
v -0.9021703 3.053556 -0.509783 1 1 1
v -0.3855889 3.053556 -0.6116905 1 1 1
v -0.9071455 3.053556 -0.5595348 1 1 1
v -0.9021703 2.645556 -0.5097829 1 1 1
v -0.9071455 2.645556 -0.5595348 1 1 1
v -0.3179264 2.713556 -0.6184567 1 1 1
v -0.3129512 2.713556 -0.5687048 1 1 1
v -0.3179264 2.985556 -0.6184568 1 1 1
v -0.3129512 2.985556 -0.5687049 1 1 1
v -0.3855889 2.645556 -0.6116905 1 1 1
v -0.3806137 2.645556 -0.5619386 1 1 1
v -1.03653 3.29453 -0.496347 1 1 1
v -1.03653 3.49453 -0.496347 1 1 1
v -1.086281 3.24453 -0.4913718 1 1 1
v -1.086281 3.54453 -0.4913718 1 1 1
v -1.469779 3.24453 -0.453022 1 1 1
v -1.469779 3.54453 -0.4530221 1 1 1
v -1.519531 3.29453 -0.4480469 1 1 1
v -1.519531 3.49453 -0.4480469 1 1 1
v -1.041505 3.29453 -0.5460988 1 1 1
v -1.041505 3.49453 -0.5460988 1 1 1
v -1.091257 3.24453 -0.5411236 1 1 1
v -1.091257 3.54453 -0.5411237 1 1 1
v -1.474754 3.24453 -0.5027739 1 1 1
v -1.474754 3.54453 -0.5027739 1 1 1
v -1.524506 3.29453 -0.4977987 1 1 1
v -1.524506 3.49453 -0.4977987 1 1 1

vn -1 0 0
vn 1 0 0
vn 0 0 1
vn 0 0 -1
vn 0 1 0
vn 0 -1 0
vn -0.0995037 0 0.9950371
vn 0.0995037 0 -0.9950371
vn 0.09950373 0 0.9950371
vn -0.09950373 0 -0.9950371
vn 0.9192945 -0.3826835 0.09192948
vn 0.9192945 0.3826835 0.09192939
vn -0.9192945 -0.3826835 -0.09192939
vn -0.9192945 0.3826835 -0.09192948
vn -0.3807842 0.9238796 -0.03807853
vn 0.3807842 -0.9238796 0.03807853
vn 0.09950371 -1.192093E-07 -0.9950373
vn -0.09950371 1.192093E-07 0.9950373
vn 0.3807842 0.9238796 0.03807831
vn -0.3807842 -0.9238796 -0.03807831
vn -0.9192945 -0.3826835 0.09192951
vn -0.9192945 0.3826835 0.09192942
vn 0.9192945 -0.3826835 -0.09192942
vn 0.9192945 0.3826835 -0.09192951
vn -0.3807842 0.9238796 0.03807832
vn 0.3807842 -0.9238796 -0.03807832
vn -0.09950374 -1.192093E-07 -0.9950373
vn 0.09950374 1.192093E-07 0.9950373
vn 0.3807842 0.9238796 -0.03807854
vn -0.3807842 -0.9238796 0.03807854

vt 0.34375 0.145
vt 0.34375 0.225
vt 0.34375 0.1709605
vt 0.34375 0.174516
vt 0.34375 0.1754049
vt 0.34375 0.1700716
vt 0.34375 0.2035694
vt 0.34375 0.207125
vt 0.34375 0.2080139
vt 0.34375 0.1992854
vt 0.34375 0.2026805
vt 0.34375 0.1980765
vt 0.34375 0.193241
vt 0.34375 0.1593472
vt 0.34375 0.1920321
vt 0.34375 0.1584583
vt 0.34375 0.1549027
vt 0.34375 0.1540138
vt 0.34375 0.1199012
vt 0.34375 0.1287901
vt 0.34375 0.1310123
vt 0.34375 0.117679
vt 0.34375 0.0797568
vt 0.34375 0.08864567
vt 0.34375 0.0908679
vt 0.34375 0.07753456
vt 0.34375 0.1756025
vt 0.34375 0.1876913
vt 0.34375 0.1907136
vt 0.34375 0.1725802
vt 0.34375 0.2014236
vt 0.34375 0.2103125
vt 0.34375 0.1992014
vt 0.34375 0.2125347

usemtl colormap

f 3/1/1 2/2/1 1/1/1
f 2/2/1 3/1/1 4/2/1
f 1/1/2 2/2/2 3/1/2
f 4/2/2 3/1/2 2/2/2
f 7/2/2 6/1/2 5/2/2
f 6/1/2 7/2/2 8/1/2
f 5/2/1 6/1/1 7/2/1
f 8/1/1 7/2/1 6/1/1
f 7/2/3 3/1/3 8/1/3
f 3/1/3 7/2/3 4/2/3
f 8/1/4 3/1/4 7/2/4
f 4/2/4 7/2/4 3/1/4
f 5/2/5 4/2/5 7/2/5
f 4/2/5 5/2/5 9/2/5
f 4/2/5 9/2/5 2/2/5
f 7/2/6 4/2/6 5/2/6
f 9/2/6 5/2/6 4/2/6
f 2/2/6 9/2/6 4/2/6
f 11/4/7 10/3/7 5/2/7
f 12/5/7 11/4/7 5/2/7
f 5/2/7 10/3/7 6/1/7
f 9/2/3 12/5/7 5/2/7
f 13/6/7 6/1/7 10/3/7
f 14/6/7 6/1/7 13/6/7
f 12/5/7 9/2/3 15/5/7
f 15/5/7 9/2/3 16/4/7
f 14/6/7 17/3/7 6/1/7
f 16/4/7 9/2/3 17/3/7
f 6/1/7 17/3/7 18/1/3
f 9/2/3 18/1/3 17/3/7
f 18/1/4 17/3/8 6/1/8
f 17/3/8 18/1/4 9/2/4
f 6/1/8 17/3/8 14/6/8
f 13/6/8 6/1/8 14/6/8
f 10/3/8 6/1/8 13/6/8
f 17/3/8 9/2/4 16/4/8
f 16/4/8 9/2/4 15/5/8
f 15/5/8 9/2/4 12/5/8
f 6/1/8 10/3/8 5/2/8
f 5/2/8 12/5/8 9/2/4
f 5/2/8 10/3/8 11/4/8
f 5/2/8 11/4/8 12/5/8
f 20/8/9 19/7/9 9/2/3
f 21/9/9 20/8/9 9/2/3
f 2/2/9 21/9/9 9/2/3
f 21/9/9 2/2/9 22/9/9
f 22/9/9 2/2/9 23/8/9
f 23/8/9 2/2/9 24/7/9
f 19/7/9 25/10/9 9/2/3
f 26/11/9 25/10/9 19/7/9
f 27/11/9 25/10/9 26/11/9
f 25/10/9 28/12/9 9/2/3
f 25/10/9 27/11/9 29/10/9
f 29/10/9 27/11/9 30/12/9
f 28/12/9 31/13/9 9/2/3
f 30/12/9 27/11/9 32/13/9
f 27/11/9 24/7/9 32/13/9
f 9/2/3 31/13/9 18/1/3
f 32/13/9 24/7/9 33/14/9
f 24/7/9 2/2/9 33/14/9
f 34/15/9 32/13/9 33/14/9
f 34/15/9 33/14/9 35/15/9
f 35/15/9 33/14/9 31/13/9
f 33/14/9 36/16/9 31/13/9
f 36/16/9 37/17/9 31/13/9
f 37/17/9 18/1/3 31/13/9
f 38/18/9 18/1/3 37/17/9
f 39/18/9 18/1/3 38/18/9
f 18/1/3 39/18/9 1/1/9
f 40/17/9 1/1/9 39/18/9
f 2/2/9 1/1/9 40/17/9
f 33/14/9 2/2/9 41/14/9
f 42/16/9 2/2/9 40/17/9
f 41/14/9 2/2/9 42/16/9
f 9/2/4 19/7/10 20/8/10
f 9/2/4 20/8/10 21/9/10
f 9/2/4 21/9/10 2/2/10
f 22/9/10 2/2/10 21/9/10
f 23/8/10 2/2/10 22/9/10
f 24/7/10 2/2/10 23/8/10
f 9/2/4 25/10/10 19/7/10
f 19/7/10 25/10/10 26/11/10
f 26/11/10 25/10/10 27/11/10
f 9/2/4 28/12/10 25/10/10
f 29/10/10 27/11/10 25/10/10
f 30/12/10 27/11/10 29/10/10
f 9/2/4 31/13/10 28/12/10
f 32/13/10 27/11/10 30/12/10
f 32/13/10 24/7/10 27/11/10
f 18/1/4 31/13/10 9/2/4
f 33/14/10 24/7/10 32/13/10
f 33/14/10 2/2/10 24/7/10
f 33/14/10 32/13/10 34/15/10
f 35/15/10 33/14/10 34/15/10
f 31/13/10 33/14/10 35/15/10
f 31/13/10 36/16/10 33/14/10
f 31/13/10 37/17/10 36/16/10
f 31/13/10 18/1/4 37/17/10
f 37/17/10 18/1/4 38/18/10
f 38/18/10 18/1/4 39/18/10
f 1/1/10 39/18/10 18/1/4
f 39/18/10 1/1/10 40/17/10
f 40/17/10 1/1/10 2/2/10
f 41/14/10 2/2/10 33/14/10
f 40/17/10 2/2/10 42/16/10
f 42/16/10 2/2/10 41/14/10
f 45/20/12 44/19/11 43/19/11
f 44/19/11 45/20/12 46/20/12
f 43/19/14 44/19/14 45/20/13
f 46/20/13 45/20/13 44/19/14
f 49/21/15 48/20/14 47/20/14
f 48/20/14 49/21/15 50/21/15
f 47/20/11 48/20/11 49/21/16
f 50/21/16 49/21/16 48/20/11
f 51/22/17 45/20/17 43/19/17
f 45/20/17 51/22/17 52/21/17
f 52/21/17 51/22/17 53/22/17
f 52/21/17 53/22/17 50/21/17
f 50/21/17 53/22/17 54/19/17
f 50/21/17 54/19/17 48/20/17
f 43/19/18 45/20/18 51/22/18
f 52/21/18 51/22/18 45/20/18
f 53/22/18 51/22/18 52/21/18
f 50/21/18 53/22/18 52/21/18
f 54/19/18 53/22/18 50/21/18
f 48/20/18 54/19/18 50/21/18
f 55/21/19 50/21/15 49/21/15
f 50/21/15 55/21/19 52/21/19
f 49/21/16 50/21/16 55/21/20
f 52/21/20 55/21/20 50/21/16
f 45/20/12 55/21/19 46/20/12
f 55/21/19 45/20/12 52/21/19
f 46/20/13 55/21/20 45/20/13
f 52/21/20 45/20/13 55/21/20
f 56/22/17 46/20/17 44/19/17
f 46/20/17 56/22/17 55/21/17
f 55/21/17 56/22/17 57/22/17
f 55/21/17 57/22/17 49/21/17
f 49/21/17 57/22/17 58/19/17
f 49/21/17 58/19/17 47/20/17
f 44/19/18 46/20/18 56/22/18
f 55/21/18 56/22/18 46/20/18
f 57/22/18 56/22/18 55/21/18
f 49/21/18 57/22/18 55/21/18
f 58/19/18 57/22/18 49/21/18
f 47/20/18 58/19/18 49/21/18
f 53/22/20 56/22/16 57/22/20
f 56/22/16 53/22/20 51/22/16
f 57/22/19 56/22/15 53/22/19
f 51/22/15 53/22/19 56/22/15
f 47/20/14 54/19/13 58/19/13
f 54/19/13 47/20/14 48/20/14
f 58/19/12 54/19/12 47/20/11
f 48/20/11 47/20/11 54/19/12
f 54/19/13 57/22/20 58/19/13
f 57/22/20 54/19/13 53/22/20
f 58/19/12 57/22/19 54/19/12
f 53/22/19 54/19/12 57/22/19
f 56/22/16 43/19/11 44/19/11
f 43/19/11 56/22/16 51/22/16
f 44/19/14 43/19/14 56/22/15
f 51/22/15 56/22/15 43/19/14
f 61/24/22 60/23/21 59/23/21
f 60/23/21 61/24/22 62/24/22
f 59/23/24 60/23/24 61/24/23
f 62/24/23 61/24/23 60/23/24
f 64/25/25 61/24/22 63/25/25
f 61/24/22 64/25/25 62/24/22
f 63/25/26 61/24/23 64/25/26
f 62/24/23 64/25/26 61/24/23
f 67/26/27 66/24/27 65/23/27
f 66/24/27 67/26/27 68/25/27
f 68/25/27 67/26/27 69/26/27
f 68/25/27 69/26/27 64/25/27
f 64/25/27 69/26/27 60/23/27
f 64/25/27 60/23/27 62/24/27
f 65/23/28 66/24/28 67/26/28
f 68/25/28 67/26/28 66/24/28
f 69/26/28 67/26/28 68/25/28
f 64/25/28 69/26/28 68/25/28
f 60/23/28 69/26/28 64/25/28
f 62/24/28 60/23/28 64/25/28
f 71/26/26 65/23/23 70/23/23
f 65/23/23 71/26/26 67/26/26
f 70/23/22 65/23/22 71/26/25
f 67/26/25 71/26/25 65/23/22
f 72/25/29 64/25/25 63/25/25
f 64/25/25 72/25/29 68/25/29
f 63/25/26 64/25/26 72/25/30
f 68/25/30 72/25/30 64/25/26
f 66/24/24 70/23/23 65/23/23
f 70/23/23 66/24/24 73/24/24
f 65/23/22 70/23/22 66/24/21
f 73/24/21 66/24/21 70/23/22
f 66/24/24 72/25/29 73/24/24
f 72/25/29 66/24/24 68/25/29
f 73/24/21 72/25/30 66/24/21
f 68/25/30 66/24/21 72/25/30
f 71/26/27 73/24/27 70/23/27
f 73/24/27 71/26/27 72/25/27
f 72/25/27 71/26/27 74/26/27
f 72/25/27 74/26/27 63/25/27
f 63/25/27 74/26/27 59/23/27
f 63/25/27 59/23/27 61/24/27
f 70/23/28 73/24/28 71/26/28
f 72/25/28 71/26/28 73/24/28
f 74/26/28 71/26/28 72/25/28
f 63/25/28 74/26/28 72/25/28
f 59/23/28 74/26/28 63/25/28
f 61/24/28 59/23/28 63/25/28
f 69/26/30 71/26/26 74/26/30
f 71/26/26 69/26/30 67/26/26
f 74/26/29 71/26/25 69/26/29
f 67/26/25 69/26/29 71/26/25
f 59/23/21 69/26/30 74/26/30
f 69/26/30 59/23/21 60/23/21
f 74/26/29 69/26/29 59/23/24
f 60/23/24 59/23/24 69/26/29
f 77/28/22 76/27/21 75/27/21
f 76/27/21 77/28/22 78/28/22
f 75/27/24 76/27/24 77/28/23
f 78/28/23 77/28/23 76/27/24
f 81/29/29 80/29/25 79/29/29
f 80/29/25 81/29/29 82/29/25
f 79/29/30 80/29/26 81/29/30
f 82/29/26 81/29/30 80/29/26
f 76/27/21 83/30/30 75/27/21
f 83/30/30 76/27/21 84/30/30
f 75/27/24 83/30/29 76/27/24
f 84/30/29 76/27/24 83/30/29
f 80/29/25 78/28/22 77/28/22
f 78/28/22 80/29/25 82/29/25
f 77/28/23 78/28/23 80/29/26
f 82/29/26 80/29/26 78/28/23
f 87/28/24 86/27/23 85/27/23
f 86/27/23 87/28/24 88/28/24
f 85/27/22 86/27/22 87/28/21
f 88/28/21 87/28/21 86/27/22
f 89/30/27 87/28/27 85/27/27
f 87/28/27 89/30/27 81/29/27
f 81/29/27 89/30/27 84/30/27
f 81/29/27 84/30/27 82/29/27
f 82/29/27 84/30/27 76/27/27
f 82/29/27 76/27/27 78/28/27
f 85/27/28 87/28/28 89/30/28
f 81/29/28 89/30/28 87/28/28
f 84/30/28 89/30/28 81/29/28
f 82/29/28 84/30/28 81/29/28
f 76/27/28 84/30/28 82/29/28
f 78/28/28 76/27/28 82/29/28
f 90/30/27 88/28/27 86/27/27
f 88/28/27 90/30/27 79/29/27
f 79/29/27 90/30/27 83/30/27
f 79/29/27 83/30/27 80/29/27
f 80/29/27 83/30/27 75/27/27
f 80/29/27 75/27/27 77/28/27
f 86/27/28 88/28/28 90/30/28
f 79/29/28 90/30/28 88/28/28
f 83/30/28 90/30/28 79/29/28
f 80/29/28 83/30/28 79/29/28
f 75/27/28 83/30/28 80/29/28
f 77/28/28 75/27/28 80/29/28
f 90/30/26 85/27/23 86/27/23
f 85/27/23 90/30/26 89/30/26
f 86/27/22 85/27/22 90/30/25
f 89/30/25 90/30/25 85/27/22
f 83/30/30 89/30/26 90/30/26
f 89/30/26 83/30/30 84/30/30
f 90/30/25 89/30/25 83/30/29
f 84/30/29 83/30/29 89/30/25
f 87/28/24 79/29/29 88/28/24
f 79/29/29 87/28/24 81/29/29
f 88/28/21 79/29/30 87/28/21
f 81/29/30 87/28/21 79/29/30
f 93/33/27 92/32/27 91/31/27
f 92/32/27 93/33/27 94/34/27
f 94/34/27 93/33/27 95/33/27
f 94/34/27 95/33/27 96/34/27
f 96/34/27 95/33/27 97/31/27
f 96/34/27 97/31/27 98/32/27
f 91/31/28 92/32/28 93/33/28
f 94/34/28 93/33/28 92/32/28
f 95/33/28 93/33/28 94/34/28
f 96/34/28 95/33/28 94/34/28
f 97/31/28 95/33/28 96/34/28
f 98/32/28 97/31/28 96/34/28
f 101/33/27 100/32/27 99/31/27
f 100/32/27 101/33/27 102/34/27
f 102/34/27 101/33/27 103/33/27
f 102/34/27 103/33/27 104/34/27
f 104/34/27 103/33/27 105/31/27
f 104/34/27 105/31/27 106/32/27
f 99/31/28 100/32/28 101/33/28
f 102/34/28 101/33/28 100/32/28
f 103/33/28 101/33/28 102/34/28
f 104/34/28 103/33/28 102/34/28
f 105/31/28 103/33/28 104/34/28
f 106/32/28 105/31/28 104/34/28
f 101/33/26 91/31/23 93/33/26
f 91/31/23 101/33/26 99/31/23
f 93/33/25 91/31/22 101/33/25
f 99/31/22 101/33/25 91/31/22
f 102/34/29 96/34/25 94/34/29
f 96/34/25 102/34/29 104/34/25
f 94/34/30 96/34/26 102/34/30
f 104/34/26 102/34/30 96/34/26
f 97/31/21 103/33/30 95/33/30
f 103/33/30 97/31/21 105/31/21
f 95/33/29 103/33/29 97/31/24
f 105/31/24 97/31/24 103/33/29
f 104/34/25 98/32/22 96/34/25
f 98/32/22 104/34/25 106/32/22
f 96/34/26 98/32/23 104/34/26
f 106/32/23 104/34/26 98/32/23
f 103/33/30 93/33/26 95/33/30
f 93/33/26 103/33/30 101/33/26
f 95/33/29 93/33/25 103/33/29
f 101/33/25 103/33/29 93/33/25
f 100/32/24 91/31/23 99/31/23
f 91/31/23 100/32/24 92/32/24
f 99/31/22 91/31/22 100/32/21
f 92/32/21 100/32/21 91/31/22
f 98/32/22 105/31/21 97/31/21
f 105/31/21 98/32/22 106/32/22
f 97/31/24 105/31/24 98/32/23
f 106/32/23 98/32/23 105/31/24
f 100/32/24 94/34/29 92/32/24
f 94/34/29 100/32/24 102/34/29
f 92/32/21 94/34/30 100/32/21
f 102/34/30 100/32/21 94/34/30

g template-wall-top




usemtl colormap

f 3/1/1 2/2/1 1/1/1
f 2/2/1 3/1/1 4/2/1
f 1/1/2 2/2/2 3/1/2
f 4/2/2 3/1/2 2/2/2
f 7/2/2 6/1/2 5/2/2
f 6/1/2 7/2/2 8/1/2
f 5/2/1 6/1/1 7/2/1
f 8/1/1 7/2/1 6/1/1
f 7/2/3 3/1/3 8/1/3
f 3/1/3 7/2/3 4/2/3
f 8/1/4 3/1/4 7/2/4
f 4/2/4 7/2/4 3/1/4
f 5/2/5 4/2/5 7/2/5
f 4/2/5 5/2/5 9/2/5
f 4/2/5 9/2/5 2/2/5
f 7/2/6 4/2/6 5/2/6
f 9/2/6 5/2/6 4/2/6
f 2/2/6 9/2/6 4/2/6
f 11/4/7 10/3/7 5/2/7
f 12/5/7 11/4/7 5/2/7
f 5/2/7 10/3/7 6/1/7
f 9/2/3 12/5/7 5/2/7
f 13/6/7 6/1/7 10/3/7
f 14/6/7 6/1/7 13/6/7
f 12/5/7 9/2/3 15/5/7
f 15/5/7 9/2/3 16/4/7
f 14/6/7 17/3/7 6/1/7
f 16/4/7 9/2/3 17/3/7
f 6/1/7 17/3/7 18/1/3
f 9/2/3 18/1/3 17/3/7
f 18/1/4 17/3/8 6/1/8
f 17/3/8 18/1/4 9/2/4
f 6/1/8 17/3/8 14/6/8
f 13/6/8 6/1/8 14/6/8
f 10/3/8 6/1/8 13/6/8
f 17/3/8 9/2/4 16/4/8
f 16/4/8 9/2/4 15/5/8
f 15/5/8 9/2/4 12/5/8
f 6/1/8 10/3/8 5/2/8
f 5/2/8 12/5/8 9/2/4
f 5/2/8 10/3/8 11/4/8
f 5/2/8 11/4/8 12/5/8
f 20/8/9 19/7/9 9/2/3
f 21/9/9 20/8/9 9/2/3
f 2/2/9 21/9/9 9/2/3
f 21/9/9 2/2/9 22/9/9
f 22/9/9 2/2/9 23/8/9
f 23/8/9 2/2/9 24/7/9
f 19/7/9 25/10/9 9/2/3
f 26/11/9 25/10/9 19/7/9
f 27/11/9 25/10/9 26/11/9
f 25/10/9 28/12/9 9/2/3
f 25/10/9 27/11/9 29/10/9
f 29/10/9 27/11/9 30/12/9
f 28/12/9 31/13/9 9/2/3
f 30/12/9 27/11/9 32/13/9
f 27/11/9 24/7/9 32/13/9
f 9/2/3 31/13/9 18/1/3
f 32/13/9 24/7/9 33/14/9
f 24/7/9 2/2/9 33/14/9
f 34/15/9 32/13/9 33/14/9
f 34/15/9 33/14/9 35/15/9
f 35/15/9 33/14/9 31/13/9
f 33/14/9 36/16/9 31/13/9
f 36/16/9 37/17/9 31/13/9
f 37/17/9 18/1/3 31/13/9
f 38/18/9 18/1/3 37/17/9
f 39/18/9 18/1/3 38/18/9
f 18/1/3 39/18/9 1/1/9
f 40/17/9 1/1/9 39/18/9
f 2/2/9 1/1/9 40/17/9
f 33/14/9 2/2/9 41/14/9
f 42/16/9 2/2/9 40/17/9
f 41/14/9 2/2/9 42/16/9
f 9/2/4 19/7/10 20/8/10
f 9/2/4 20/8/10 21/9/10
f 9/2/4 21/9/10 2/2/10
f 22/9/10 2/2/10 21/9/10
f 23/8/10 2/2/10 22/9/10
f 24/7/10 2/2/10 23/8/10
f 9/2/4 25/10/10 19/7/10
f 19/7/10 25/10/10 26/11/10
f 26/11/10 25/10/10 27/11/10
f 9/2/4 28/12/10 25/10/10
f 29/10/10 27/11/10 25/10/10
f 30/12/10 27/11/10 29/10/10
f 9/2/4 31/13/10 28/12/10
f 32/13/10 27/11/10 30/12/10
f 32/13/10 24/7/10 27/11/10
f 18/1/4 31/13/10 9/2/4
f 33/14/10 24/7/10 32/13/10
f 33/14/10 2/2/10 24/7/10
f 33/14/10 32/13/10 34/15/10
f 35/15/10 33/14/10 34/15/10
f 31/13/10 33/14/10 35/15/10
f 31/13/10 36/16/10 33/14/10
f 31/13/10 37/17/10 36/16/10
f 31/13/10 18/1/4 37/17/10
f 37/17/10 18/1/4 38/18/10
f 38/18/10 18/1/4 39/18/10
f 1/1/10 39/18/10 18/1/4
f 39/18/10 1/1/10 40/17/10
f 40/17/10 1/1/10 2/2/10
f 41/14/10 2/2/10 33/14/10
f 40/17/10 2/2/10 42/16/10
f 42/16/10 2/2/10 41/14/10
f 45/20/12 44/19/11 43/19/11
f 44/19/11 45/20/12 46/20/12
f 43/19/14 44/19/14 45/20/13
f 46/20/13 45/20/13 44/19/14
f 49/21/15 48/20/14 47/20/14
f 48/20/14 49/21/15 50/21/15
f 47/20/11 48/20/11 49/21/16
f 50/21/16 49/21/16 48/20/11
f 51/22/17 45/20/17 43/19/17
f 45/20/17 51/22/17 52/21/17
f 52/21/17 51/22/17 53/22/17
f 52/21/17 53/22/17 50/21/17
f 50/21/17 53/22/17 54/19/17
f 50/21/17 54/19/17 48/20/17
f 43/19/18 45/20/18 51/22/18
f 52/21/18 51/22/18 45/20/18
f 53/22/18 51/22/18 52/21/18
f 50/21/18 53/22/18 52/21/18
f 54/19/18 53/22/18 50/21/18
f 48/20/18 54/19/18 50/21/18
f 55/21/19 50/21/15 49/21/15
f 50/21/15 55/21/19 52/21/19
f 49/21/16 50/21/16 55/21/20
f 52/21/20 55/21/20 50/21/16
f 45/20/12 55/21/19 46/20/12
f 55/21/19 45/20/12 52/21/19
f 46/20/13 55/21/20 45/20/13
f 52/21/20 45/20/13 55/21/20
f 56/22/17 46/20/17 44/19/17
f 46/20/17 56/22/17 55/21/17
f 55/21/17 56/22/17 57/22/17
f 55/21/17 57/22/17 49/21/17
f 49/21/17 57/22/17 58/19/17
f 49/21/17 58/19/17 47/20/17
f 44/19/18 46/20/18 56/22/18
f 55/21/18 56/22/18 46/20/18
f 57/22/18 56/22/18 55/21/18
f 49/21/18 57/22/18 55/21/18
f 58/19/18 57/22/18 49/21/18
f 47/20/18 58/19/18 49/21/18
f 53/22/20 56/22/16 57/22/20
f 56/22/16 53/22/20 51/22/16
f 57/22/19 56/22/15 53/22/19
f 51/22/15 53/22/19 56/22/15
f 47/20/14 54/19/13 58/19/13
f 54/19/13 47/20/14 48/20/14
f 58/19/12 54/19/12 47/20/11
f 48/20/11 47/20/11 54/19/12
f 54/19/13 57/22/20 58/19/13
f 57/22/20 54/19/13 53/22/20
f 58/19/12 57/22/19 54/19/12
f 53/22/19 54/19/12 57/22/19
f 56/22/16 43/19/11 44/19/11
f 43/19/11 56/22/16 51/22/16
f 44/19/14 43/19/14 56/22/15
f 51/22/15 56/22/15 43/19/14
f 61/24/22 60/23/21 59/23/21
f 60/23/21 61/24/22 62/24/22
f 59/23/24 60/23/24 61/24/23
f 62/24/23 61/24/23 60/23/24
f 64/25/25 61/24/22 63/25/25
f 61/24/22 64/25/25 62/24/22
f 63/25/26 61/24/23 64/25/26
f 62/24/23 64/25/26 61/24/23
f 67/26/27 66/24/27 65/23/27
f 66/24/27 67/26/27 68/25/27
f 68/25/27 67/26/27 69/26/27
f 68/25/27 69/26/27 64/25/27
f 64/25/27 69/26/27 60/23/27
f 64/25/27 60/23/27 62/24/27
f 65/23/28 66/24/28 67/26/28
f 68/25/28 67/26/28 66/24/28
f 69/26/28 67/26/28 68/25/28
f 64/25/28 69/26/28 68/25/28
f 60/23/28 69/26/28 64/25/28
f 62/24/28 60/23/28 64/25/28
f 71/26/26 65/23/23 70/23/23
f 65/23/23 71/26/26 67/26/26
f 70/23/22 65/23/22 71/26/25
f 67/26/25 71/26/25 65/23/22
f 72/25/29 64/25/25 63/25/25
f 64/25/25 72/25/29 68/25/29
f 63/25/26 64/25/26 72/25/30
f 68/25/30 72/25/30 64/25/26
f 66/24/24 70/23/23 65/23/23
f 70/23/23 66/24/24 73/24/24
f 65/23/22 70/23/22 66/24/21
f 73/24/21 66/24/21 70/23/22
f 66/24/24 72/25/29 73/24/24
f 72/25/29 66/24/24 68/25/29
f 73/24/21 72/25/30 66/24/21
f 68/25/30 66/24/21 72/25/30
f 71/26/27 73/24/27 70/23/27
f 73/24/27 71/26/27 72/25/27
f 72/25/27 71/26/27 74/26/27
f 72/25/27 74/26/27 63/25/27
f 63/25/27 74/26/27 59/23/27
f 63/25/27 59/23/27 61/24/27
f 70/23/28 73/24/28 71/26/28
f 72/25/28 71/26/28 73/24/28
f 74/26/28 71/26/28 72/25/28
f 63/25/28 74/26/28 72/25/28
f 59/23/28 74/26/28 63/25/28
f 61/24/28 59/23/28 63/25/28
f 69/26/30 71/26/26 74/26/30
f 71/26/26 69/26/30 67/26/26
f 74/26/29 71/26/25 69/26/29
f 67/26/25 69/26/29 71/26/25
f 59/23/21 69/26/30 74/26/30
f 69/26/30 59/23/21 60/23/21
f 74/26/29 69/26/29 59/23/24
f 60/23/24 59/23/24 69/26/29
f 77/28/22 76/27/21 75/27/21
f 76/27/21 77/28/22 78/28/22
f 75/27/24 76/27/24 77/28/23
f 78/28/23 77/28/23 76/27/24
f 81/29/29 80/29/25 79/29/29
f 80/29/25 81/29/29 82/29/25
f 79/29/30 80/29/26 81/29/30
f 82/29/26 81/29/30 80/29/26
f 76/27/21 83/30/30 75/27/21
f 83/30/30 76/27/21 84/30/30
f 75/27/24 83/30/29 76/27/24
f 84/30/29 76/27/24 83/30/29
f 80/29/25 78/28/22 77/28/22
f 78/28/22 80/29/25 82/29/25
f 77/28/23 78/28/23 80/29/26
f 82/29/26 80/29/26 78/28/23
f 87/28/24 86/27/23 85/27/23
f 86/27/23 87/28/24 88/28/24
f 85/27/22 86/27/22 87/28/21
f 88/28/21 87/28/21 86/27/22
f 89/30/27 87/28/27 85/27/27
f 87/28/27 89/30/27 81/29/27
f 81/29/27 89/30/27 84/30/27
f 81/29/27 84/30/27 82/29/27
f 82/29/27 84/30/27 76/27/27
f 82/29/27 76/27/27 78/28/27
f 85/27/28 87/28/28 89/30/28
f 81/29/28 89/30/28 87/28/28
f 84/30/28 89/30/28 81/29/28
f 82/29/28 84/30/28 81/29/28
f 76/27/28 84/30/28 82/29/28
f 78/28/28 76/27/28 82/29/28
f 90/30/27 88/28/27 86/27/27
f 88/28/27 90/30/27 79/29/27
f 79/29/27 90/30/27 83/30/27
f 79/29/27 83/30/27 80/29/27
f 80/29/27 83/30/27 75/27/27
f 80/29/27 75/27/27 77/28/27
f 86/27/28 88/28/28 90/30/28
f 79/29/28 90/30/28 88/28/28
f 83/30/28 90/30/28 79/29/28
f 80/29/28 83/30/28 79/29/28
f 75/27/28 83/30/28 80/29/28
f 77/28/28 75/27/28 80/29/28
f 90/30/26 85/27/23 86/27/23
f 85/27/23 90/30/26 89/30/26
f 86/27/22 85/27/22 90/30/25
f 89/30/25 90/30/25 85/27/22
f 83/30/30 89/30/26 90/30/26
f 89/30/26 83/30/30 84/30/30
f 90/30/25 89/30/25 83/30/29
f 84/30/29 83/30/29 89/30/25
f 87/28/24 79/29/29 88/28/24
f 79/29/29 87/28/24 81/29/29
f 88/28/21 79/29/30 87/28/21
f 81/29/30 87/28/21 79/29/30
f 93/33/27 92/32/27 91/31/27
f 92/32/27 93/33/27 94/34/27
f 94/34/27 93/33/27 95/33/27
f 94/34/27 95/33/27 96/34/27
f 96/34/27 95/33/27 97/31/27
f 96/34/27 97/31/27 98/32/27
f 91/31/28 92/32/28 93/33/28
f 94/34/28 93/33/28 92/32/28
f 95/33/28 93/33/28 94/34/28
f 96/34/28 95/33/28 94/34/28
f 97/31/28 95/33/28 96/34/28
f 98/32/28 97/31/28 96/34/28
f 101/33/27 100/32/27 99/31/27
f 100/32/27 101/33/27 102/34/27
f 102/34/27 101/33/27 103/33/27
f 102/34/27 103/33/27 104/34/27
f 104/34/27 103/33/27 105/31/27
f 104/34/27 105/31/27 106/32/27
f 99/31/28 100/32/28 101/33/28
f 102/34/28 101/33/28 100/32/28
f 103/33/28 101/33/28 102/34/28
f 104/34/28 103/33/28 102/34/28
f 105/31/28 103/33/28 104/34/28
f 106/32/28 105/31/28 104/34/28
f 101/33/26 91/31/23 93/33/26
f 91/31/23 101/33/26 99/31/23
f 93/33/25 91/31/22 101/33/25
f 99/31/22 101/33/25 91/31/22
f 102/34/29 96/34/25 94/34/29
f 96/34/25 102/34/29 104/34/25
f 94/34/30 96/34/26 102/34/30
f 104/34/26 102/34/30 96/34/26
f 97/31/21 103/33/30 95/33/30
f 103/33/30 97/31/21 105/31/21
f 95/33/29 103/33/29 97/31/24
f 105/31/24 97/31/24 103/33/29
f 104/34/25 98/32/22 96/34/25
f 98/32/22 104/34/25 106/32/22
f 96/34/26 98/32/23 104/34/26
f 106/32/23 104/34/26 98/32/23
f 103/33/30 93/33/26 95/33/30
f 93/33/26 103/33/30 101/33/26
f 95/33/29 93/33/25 103/33/29
f 101/33/25 103/33/29 93/33/25
f 100/32/24 91/31/23 99/31/23
f 91/31/23 100/32/24 92/32/24
f 99/31/22 91/31/22 100/32/21
f 92/32/21 100/32/21 91/31/22
f 98/32/22 105/31/21 97/31/21
f 105/31/21 98/32/22 106/32/22
f 97/31/24 105/31/24 98/32/23
f 106/32/23 98/32/23 105/31/24
f 100/32/24 94/34/29 92/32/24
f 94/34/29 100/32/24 102/34/29
f 92/32/21 94/34/30 100/32/21
f 102/34/30 100/32/21 94/34/30

