# Created by Kenney (www.kenney.nl)

mtllib template-wall-corner.mtl

g template-wall-corner

v 0 0.9 -0.6009976 1 1 1
v 0 0.9 0 1 1 1
v -0.3004988 0.9 -0.5204792 1 1 1
v -0.6009976 0.9 0 1 1 1
v -0.5204791 0.9 -0.3004988 1 1 1
v 0 0.2 -0.6009976 1 1 1
v 0 0.2 0 1 1 1
v -0.6009976 0.2 0 1 1 1
v -0.5204791 0.2 -0.3004988 1 1 1
v -0.3004988 0.2 -0.5204792 1 1 1
v 0 4.05 -0.4 1 1 1
v 0 0.9 -0.4 1 1 1
v 0 4.05 0 1 1 1
v -0.4 0.9 0 1 1 1
v -0.4 4.05 0 1 1 1
v -0.2 0.9 -0.3464102 1 1 1
v -0.2 4.05 -0.3464102 1 1 1
v -0.3464102 0.9 -0.2 1 1 1
v -0.3464102 4.05 -0.2 1 1 1
v 0 -1.707772E-14 0 1 1 1
v -1.001995 -1.707772E-14 0 1 1 1
v -1.001995 0.2 0 1 1 1
v 0 0.2 -1.001995 1 1 1
v 0 -1.707772E-14 -1.001995 1 1 1
v -0.5009975 0.2 -0.8677531 1 1 1
v -0.8677531 0.2 -0.5009975 1 1 1
v -0.5009975 -1.635581E-14 -0.8677531 1 1 1
v -0.8677531 -1.635581E-14 -0.5009975 1 1 1

vn 0 1 0
vn 0 -1 0
vn 1 0 0
vn -1 0 0
vn 0 0 1
vn 0 0 -1
vn -0.8660254 0 -0.5
vn -0.9659258 0 -0.258819
vn 0.9659258 0 0.258819
vn 0.8660254 0 0.5
vn -0.5 0 -0.8660254
vn 0.5 0 0.8660254
vn -0.258819 0 -0.9659258
vn 0.258819 0 0.9659258
vn -0.5 0 -0.8660254
vn 0.5 0 0.8660254

vt 0.09375 0.225
vt 0.09375 0.025
vt 0.34375 0.225
vt 0.34375 0.025
vt 0.34375 0.105

usemtl colormap

f 3/1/1 2/1/1 1/1/1
f 2/1/1 3/1/1 4/1/1
f 4/1/1 3/1/1 5/1/1
f 1/1/2 2/1/2 3/1/2
f 4/1/2 3/1/2 2/1/2
f 5/1/2 3/1/2 4/1/2
f 2/1/3 6/2/3 1/1/3
f 6/2/3 2/1/3 7/2/3
f 1/1/4 6/2/4 2/1/4
f 7/2/4 2/1/4 6/2/4
f 2/1/5 8/2/5 7/2/5
f 8/2/5 2/1/5 4/1/5
f 7/2/6 8/2/6 2/1/6
f 4/1/6 2/1/6 8/2/6
f 8/2/8 5/1/7 9/2/7
f 5/1/7 8/2/8 4/1/8
f 9/2/10 5/1/10 8/2/9
f 4/1/9 8/2/9 5/1/10
f 9/2/7 3/1/11 10/2/11
f 3/1/11 9/2/7 5/1/7
f 10/2/12 3/1/12 9/2/10
f 5/1/10 9/2/10 3/1/12
f 10/2/11 1/1/13 6/2/13
f 1/1/13 10/2/11 3/1/11
f 6/2/14 1/1/14 10/2/12
f 3/1/12 10/2/12 1/1/14
f 13/3/3 12/4/3 11/3/3
f 12/4/3 13/3/3 2/4/3
f 11/3/4 12/4/4 13/3/4
f 2/4/4 13/3/4 12/4/4
f 13/3/5 14/4/5 2/4/5
f 14/4/5 13/3/5 15/3/5
f 2/4/6 14/4/6 13/3/6
f 15/3/6 13/3/6 14/4/6
f 16/4/11 11/3/13 12/4/13
f 11/3/13 16/4/11 17/3/11
f 12/4/14 11/3/14 16/4/12
f 17/3/12 16/4/12 11/3/14
f 14/4/8 19/3/7 18/4/7
f 19/3/7 14/4/8 15/3/8
f 18/4/10 19/3/10 14/4/9
f 15/3/9 14/4/9 19/3/10
f 17/3/1 13/3/1 11/3/1
f 13/3/1 17/3/1 15/3/1
f 15/3/1 17/3/1 19/3/1
f 11/3/2 13/3/2 17/3/2
f 15/3/2 17/3/2 13/3/2
f 19/3/2 17/3/2 15/3/2
f 19/3/7 16/4/11 18/4/7
f 16/4/11 19/3/7 17/3/11
f 18/4/10 16/4/12 19/3/10
f 17/3/12 19/3/10 16/4/12
f 7/5/5 21/4/5 20/4/5
f 21/4/5 7/5/5 22/5/5
f 20/4/6 21/4/6 7/5/6
f 22/5/6 7/5/6 21/4/6
f 7/5/3 24/4/3 23/5/3
f 24/4/3 7/5/3 20/4/3
f 23/5/4 24/4/4 7/5/4
f 20/4/4 7/5/4 24/4/4
f 25/5/1 7/5/1 23/5/1
f 7/5/1 25/5/1 22/5/1
f 22/5/1 25/5/1 26/5/1
f 23/5/2 7/5/2 25/5/2
f 22/5/2 25/5/2 7/5/2
f 26/5/2 25/5/2 22/5/2
f 21/4/2 24/4/2 20/4/2
f 24/4/2 21/4/2 27/4/2
f 27/4/2 21/4/2 28/4/2
f 20/4/1 24/4/1 21/4/1
f 27/4/1 21/4/1 24/4/1
f 28/4/1 21/4/1 27/4/1
f 21/4/8 26/5/7 28/4/7
f 26/5/7 21/4/8 22/5/8
f 28/4/10 26/5/10 21/4/9
f 22/5/9 21/4/9 26/5/10
f 26/5/7 27/4/15 28/4/7
f 27/4/15 26/5/7 25/5/15
f 28/4/10 27/4/16 26/5/10
f 25/5/16 26/5/10 27/4/16
f 27/4/15 23/5/13 24/4/13
f 23/5/13 27/4/15 25/5/15
f 24/4/14 23/5/14 27/4/16
f 25/5/16 27/4/16 23/5/14

g template-wall-corner




usemtl colormap

f 3/1/1 2/1/1 1/1/1
f 2/1/1 3/1/1 4/1/1
f 4/1/1 3/1/1 5/1/1
f 1/1/2 2/1/2 3/1/2
f 4/1/2 3/1/2 2/1/2
f 5/1/2 3/1/2 4/1/2
f 2/1/3 6/2/3 1/1/3
f 6/2/3 2/1/3 7/2/3
f 1/1/4 6/2/4 2/1/4
f 7/2/4 2/1/4 6/2/4
f 2/1/5 8/2/5 7/2/5
f 8/2/5 2/1/5 4/1/5
f 7/2/6 8/2/6 2/1/6
f 4/1/6 2/1/6 8/2/6
f 8/2/8 5/1/7 9/2/7
f 5/1/7 8/2/8 4/1/8
f 9/2/10 5/1/10 8/2/9
f 4/1/9 8/2/9 5/1/10
f 9/2/7 3/1/11 10/2/11
f 3/1/11 9/2/7 5/1/7
f 10/2/12 3/1/12 9/2/10
f 5/1/10 9/2/10 3/1/12
f 10/2/11 1/1/13 6/2/13
f 1/1/13 10/2/11 3/1/11
f 6/2/14 1/1/14 10/2/12
f 3/1/12 10/2/12 1/1/14
f 13/3/3 12/4/3 11/3/3
f 12/4/3 13/3/3 2/4/3
f 11/3/4 12/4/4 13/3/4
f 2/4/4 13/3/4 12/4/4
f 13/3/5 14/4/5 2/4/5
f 14/4/5 13/3/5 15/3/5
f 2/4/6 14/4/6 13/3/6
f 15/3/6 13/3/6 14/4/6
f 16/4/11 11/3/13 12/4/13
f 11/3/13 16/4/11 17/3/11
f 12/4/14 11/3/14 16/4/12
f 17/3/12 16/4/12 11/3/14
f 14/4/8 19/3/7 18/4/7
f 19/3/7 14/4/8 15/3/8
f 18/4/10 19/3/10 14/4/9
f 15/3/9 14/4/9 19/3/10
f 17/3/1 13/3/1 11/3/1
f 13/3/1 17/3/1 15/3/1
f 15/3/1 17/3/1 19/3/1
f 11/3/2 13/3/2 17/3/2
f 15/3/2 17/3/2 13/3/2
f 19/3/2 17/3/2 15/3/2
f 19/3/7 16/4/11 18/4/7
f 16/4/11 19/3/7 17/3/11
f 18/4/10 16/4/12 19/3/10
f 17/3/12 19/3/10 16/4/12
f 7/5/5 21/4/5 20/4/5
f 21/4/5 7/5/5 22/5/5
f 20/4/6 21/4/6 7/5/6
f 22/5/6 7/5/6 21/4/6
f 7/5/3 24/4/3 23/5/3
f 24/4/3 7/5/3 20/4/3
f 23/5/4 24/4/4 7/5/4
f 20/4/4 7/5/4 24/4/4
f 25/5/1 7/5/1 23/5/1
f 7/5/1 25/5/1 22/5/1
f 22/5/1 25/5/1 26/5/1
f 23/5/2 7/5/2 25/5/2
f 22/5/2 25/5/2 7/5/2
f 26/5/2 25/5/2 22/5/2
f 21/4/2 24/4/2 20/4/2
f 24/4/2 21/4/2 27/4/2
f 27/4/2 21/4/2 28/4/2
f 20/4/1 24/4/1 21/4/1
f 27/4/1 21/4/1 24/4/1
f 28/4/1 21/4/1 27/4/1
f 21/4/8 26/5/7 28/4/7
f 26/5/7 21/4/8 22/5/8
f 28/4/10 26/5/10 21/4/9
f 22/5/9 21/4/9 26/5/10
f 26/5/7 27/4/15 28/4/7
f 27/4/15 26/5/7 25/5/15
f 28/4/10 27/4/16 26/5/10
f 25/5/16 26/5/10 27/4/16
f 27/4/15 23/5/13 24/4/13
f 23/5/13 27/4/15 25/5/15
f 24/4/14 23/5/14 27/4/16
f 25/5/16 27/4/16 23/5/14

